<svg width="60" height="60" viewBox="0 0 60 60" fill="none" xmlns="http://www.w3.org/2000/svg">
<g filter="url(#filter0_i_221_87967)">
<path d="M38.5507 16.4658C38.3362 16.4661 38.1294 16.386 37.971 16.2414C37.8873 16.1652 37.8194 16.0733 37.7712 15.9709C37.723 15.8685 37.6955 15.7576 37.6902 15.6446C37.6848 15.5315 37.7018 15.4185 37.7402 15.312C37.7785 15.2056 37.8375 15.1077 37.9137 15.024C39.8167 12.9329 42.1648 11.5891 44.7043 11.1381C46.8091 10.7645 49.0264 11.0076 50.9472 11.8235C51.1576 11.9129 51.3238 12.0822 51.4093 12.2941C51.4949 12.506 51.4928 12.7432 51.4036 12.9535C51.3142 13.1639 51.1449 13.3301 50.9329 13.4156C50.721 13.5012 50.4838 13.4991 50.2734 13.4098C47.2885 12.142 42.8092 12.2049 39.1882 16.1839C39.1075 16.2728 39.0091 16.3439 38.8993 16.3924C38.7895 16.4409 38.6707 16.4659 38.5507 16.4658Z" fill="#D0C9BF"/>
</g>
<g filter="url(#filter1_ii_221_87967)">
<path d="M40.3679 21.5141L41.7431 20.1389C43.3907 18.4914 43.3907 15.8202 41.7431 14.1726L40.1664 12.5959C38.5188 10.9483 35.8477 10.9483 34.2001 12.5959L31.845 14.951C29.1847 13.8008 26.2518 13.1623 23.1691 13.1623C11.0835 13.1623 1.28613 22.9596 1.28613 35.0453C1.28613 47.1309 11.0835 56.9283 23.1691 56.9283C35.2548 56.9283 45.0521 47.1309 45.0521 35.0453C45.0521 29.9371 43.3016 25.2377 40.3679 21.5141Z" fill="#384C59"/>
</g>
<g filter="url(#filter2_i_221_87967)">
<path d="M53.2004 12.2652C53.2004 13.6932 52.0385 14.8552 50.6103 14.8552C49.1822 14.8552 48.0204 13.6932 48.0204 12.2652C48.0204 10.8371 49.1822 9.67523 50.6103 9.67523C52.0385 9.67523 53.2004 10.8371 53.2004 12.2652ZM51.587 7.89902V4.68187C51.587 4.14246 51.1497 3.70523 50.6103 3.70523C50.0709 3.70523 49.6337 4.14246 49.6337 4.68187V7.89902C49.6337 8.15804 49.7366 8.40645 49.9197 8.58961C50.1029 8.77276 50.3513 8.87566 50.6103 8.87566C50.8693 8.87566 51.1177 8.77276 51.3009 8.58961C51.4841 8.40645 51.587 8.15804 51.587 7.89902ZM48.2136 9.86836C48.3043 9.77767 48.3762 9.67001 48.4253 9.55152C48.4744 9.43303 48.4997 9.30603 48.4997 9.17777C48.4997 9.04951 48.4744 8.92251 48.4253 8.80402C48.3762 8.68553 48.3043 8.57787 48.2136 8.48718L45.9388 6.21234C45.755 6.03213 45.5075 5.93174 45.2501 5.933C44.9928 5.93426 44.7463 6.03707 44.5643 6.21907C44.3823 6.40107 44.2795 6.64756 44.2783 6.90493C44.2771 7.16231 44.3775 7.40977 44.5577 7.59351L46.8325 9.86836C47.0232 10.059 47.2732 10.1544 47.5231 10.1544C47.7731 10.1544 48.0229 10.059 48.2136 9.86836ZM45.9388 18.3178L48.2136 16.043C48.3938 15.8592 48.4942 15.6118 48.493 15.3544C48.4918 15.097 48.389 14.8505 48.207 14.6685C48.025 14.4865 47.7785 14.3837 47.5211 14.3825C47.2638 14.3812 47.0163 14.4816 46.8325 14.6618L44.5577 16.9366C44.4211 17.0732 44.328 17.2472 44.2903 17.4367C44.2526 17.6262 44.2719 17.8226 44.3458 18.001C44.4197 18.1795 44.545 18.3321 44.7056 18.4394C44.8662 18.5467 45.0551 18.6039 45.2483 18.6039C45.3765 18.604 45.5036 18.5788 45.6221 18.5297C45.7406 18.4807 45.8482 18.4086 45.9388 18.3178ZM51.587 19.8484V16.6312C51.587 16.0918 51.1497 15.6546 50.6103 15.6546C50.0709 15.6546 49.6337 16.0918 49.6337 16.6312V19.8484C49.6337 20.3878 50.0709 20.825 50.6103 20.825C51.1497 20.825 51.587 20.3878 51.587 19.8484ZM56.663 18.3178C56.7537 18.2271 56.8257 18.1195 56.8748 18.001C56.9239 17.8825 56.9491 17.7555 56.9491 17.6272C56.9491 17.499 56.9239 17.372 56.8748 17.2535C56.8257 17.135 56.7537 17.0273 56.663 16.9366L54.3882 14.6618C54.2044 14.4816 53.957 14.3812 53.6996 14.3825C53.4422 14.3837 53.1958 14.4865 53.0138 14.6685C52.8318 14.8505 52.729 15.097 52.7278 15.3544C52.7265 15.6118 52.8269 15.8592 53.0072 16.043L55.282 18.3178C55.4727 18.5085 55.7226 18.6039 55.9726 18.6039C56.2225 18.6039 56.4724 18.5085 56.663 18.3178ZM59.1703 12.2652C59.1703 12.0062 59.0674 11.7578 58.8842 11.5746C58.7011 11.3914 58.4527 11.2886 58.1936 11.2886H54.9765C54.4371 11.2886 53.9998 11.7258 53.9998 12.2652C53.9998 12.8046 54.4371 13.2418 54.9765 13.2418H58.1936C58.4527 13.2418 58.7011 13.1389 58.8842 12.9558C59.0674 12.7726 59.1703 12.5242 59.1703 12.2652ZM54.3882 9.86836L56.663 7.59351C56.8433 7.40977 56.9437 7.16231 56.9424 6.90493C56.9412 6.64756 56.8384 6.40107 56.6564 6.21907C56.4744 6.03707 56.228 5.93426 55.9706 5.933C55.7132 5.93174 55.4658 6.03213 55.282 6.21234L53.0072 8.48718C52.8705 8.62375 52.7774 8.79777 52.7397 8.98724C52.702 9.17671 52.7213 9.37311 52.7953 9.55159C52.8692 9.73007 52.9944 9.88261 53.155 9.98991C53.3157 10.0972 53.5046 10.1545 53.6977 10.1544C53.826 10.1546 53.953 10.1294 54.0715 10.0803C54.19 10.0312 54.2976 9.95918 54.3882 9.86836Z" fill="#FFC145"/>
</g>
<path d="M14.5324 18.038C11.1552 19.5225 9.16511 22.4271 10.0875 24.5256C11.0099 26.6242 14.4955 27.1221 17.8727 25.6377C21.25 24.1533 23.24 21.2487 22.3177 19.1501C21.3953 17.0515 17.9097 16.5536 14.5324 18.038Z" fill="#80878C"/>
<defs>
<filter id="filter0_i_221_87967" x="37.6892" y="10.9671" width="13.783" height="5.49866" filterUnits="userSpaceOnUse" color-interpolation-filters="sRGB">
<feFlood flood-opacity="0" result="BackgroundImageFix"/>
<feBlend mode="normal" in="SourceGraphic" in2="BackgroundImageFix" result="shape"/>
<feColorMatrix in="SourceAlpha" type="matrix" values="0 0 0 0 0 0 0 0 0 0 0 0 0 0 0 0 0 0 127 0" result="hardAlpha"/>
<feOffset dy="-1"/>
<feComposite in2="hardAlpha" operator="arithmetic" k2="-1" k3="1"/>
<feColorMatrix type="matrix" values="0 0 0 0 0.729167 0 0 0 0 0.702895 0 0 0 0 0.665365 0 0 0 1 0"/>
<feBlend mode="normal" in2="shape" result="effect1_innerShadow_221_87967"/>
</filter>
<filter id="filter1_ii_221_87967" x="1.28613" y="11.3602" width="43.7661" height="45.568" filterUnits="userSpaceOnUse" color-interpolation-filters="sRGB">
<feFlood flood-opacity="0" result="BackgroundImageFix"/>
<feBlend mode="normal" in="SourceGraphic" in2="BackgroundImageFix" result="shape"/>
<feColorMatrix in="SourceAlpha" type="matrix" values="0 0 0 0 0 0 0 0 0 0 0 0 0 0 0 0 0 0 127 0" result="hardAlpha"/>
<feOffset dx="-2" dy="-1"/>
<feComposite in2="hardAlpha" operator="arithmetic" k2="-1" k3="1"/>
<feColorMatrix type="matrix" values="0 0 0 0 0 0 0 0 0 0 0 0 0 0 0 0 0 0 1 0"/>
<feBlend mode="normal" in2="shape" result="effect1_innerShadow_221_87967"/>
<feColorMatrix in="SourceAlpha" type="matrix" values="0 0 0 0 0 0 0 0 0 0 0 0 0 0 0 0 0 0 127 0" result="hardAlpha"/>
<feOffset dx="1" dy="1"/>
<feComposite in2="hardAlpha" operator="arithmetic" k2="-1" k3="1"/>
<feColorMatrix type="matrix" values="0 0 0 0 0.625 0 0 0 0 0.625 0 0 0 0 0.625 0 0 0 1 0"/>
<feBlend mode="normal" in2="effect1_innerShadow_221_87967" result="effect2_innerShadow_221_87967"/>
</filter>
<filter id="filter2_i_221_87967" x="44.2715" y="3.70523" width="14.8987" height="17.1198" filterUnits="userSpaceOnUse" color-interpolation-filters="sRGB">
<feFlood flood-opacity="0" result="BackgroundImageFix"/>
<feBlend mode="normal" in="SourceGraphic" in2="BackgroundImageFix" result="shape"/>
<feColorMatrix in="SourceAlpha" type="matrix" values="0 0 0 0 0 0 0 0 0 0 0 0 0 0 0 0 0 0 127 0" result="hardAlpha"/>
<feOffset dy="-1"/>
<feComposite in2="hardAlpha" operator="arithmetic" k2="-1" k3="1"/>
<feColorMatrix type="matrix" values="0 0 0 0 0.868333 0 0 0 0 0.662586 0 0 0 0 0.251093 0 0 0 1 0"/>
<feBlend mode="normal" in2="shape" result="effect1_innerShadow_221_87967"/>
</filter>
</defs>
</svg>
