<svg width="120" height="120" viewBox="0 0 120 120" fill="none" xmlns="http://www.w3.org/2000/svg">
<g id="bubble 1">
<path id="path16" d="M120 60.0039C120 93.1332 93.1388 120 59.9998 120C42.6521 120 27.0229 112.636 16.0767 100.859C15.1983 99.9264 14.359 98.9727 13.5577 97.9936C5.08473 87.6489 0 74.423 0 60.0039C0 26.8668 26.8611 1.98038e-05 59.9998 1.98038e-05C74.6434 1.98038e-05 88.0622 5.24478 98.4847 13.9726C107.729 21.7054 114.608 32.1739 117.874 44.1364C119.26 49.189 120 54.5118 120 60.0039Z" fill="#52C7F1"/>
<path id="path18" d="M34.1791 114.178C27.3235 110.904 21.1838 106.366 16.0768 100.859C17.2606 102.133 18.4992 103.355 19.7889 104.522C19.7841 104.518 19.7793 104.514 19.7744 104.511C24.0583 108.388 28.9048 111.654 34.1777 114.173C34.1781 114.175 34.1784 114.176 34.1791 114.178ZM120 60.1234C120 60.083 120 60.0444 120 60.004C120 60.0435 120 60.083 120 60.1234Z" fill="#0E1424"/>
<path id="path20" d="M33.8234 112.499C28.7698 110.471 24.0545 107.775 19.7889 104.522C18.4992 103.355 17.2606 102.133 16.0768 100.859C18.3885 98.3543 21.7774 97.4682 25.2794 97.4682C27.2155 97.4682 29.1855 97.7393 31.0284 98.156C35.3207 99.129 39.6497 100.699 43.9805 100.699C44.9272 100.699 45.8739 100.624 46.8197 100.451C52.7131 99.3799 57.3501 94.651 60.2157 89.3905C63.0812 84.1291 64.5447 78.2369 66.6864 72.6447C71.0461 61.2674 78.2951 51.0078 87.5779 43.1126C92.3281 39.0681 98.4961 35.5648 104.463 35.5648C106.43 35.5648 108.375 35.9447 110.24 36.8115C111.394 37.3485 112.448 38.0477 113.415 38.8619C114.779 43.2223 115.659 47.7949 115.99 52.5194C114.124 50.6823 111.662 49.4514 109.114 49.4514C108.787 49.4514 108.458 49.4716 108.129 49.5128C106.388 49.7365 104.763 50.5296 103.292 51.4851C94.3557 57.3009 90.8277 68.3773 85.4976 77.6122C78.4794 89.752 66.9251 99.758 53.1825 102.561C49.1772 103.378 45.0711 103.579 40.9886 103.74C39.633 103.795 38.2388 103.855 37.0138 104.433C34.1657 105.776 33.3655 109.26 33.8234 112.499ZM120 59.9426C120 59.9365 120 59.9312 120 59.9251C120 59.9303 120 59.9365 120 59.9426ZM119.999 59.8198C119.999 59.8128 119.999 59.8049 119.999 59.7979C119.999 59.8049 119.999 59.8119 119.999 59.8198ZM119.999 59.7592C119.999 59.7505 119.999 59.7435 119.999 59.7347C119.999 59.7426 119.999 59.7505 119.999 59.7592ZM119.999 59.6961C119.999 59.6882 119.999 59.682 119.999 59.675C119.999 59.682 119.999 59.689 119.999 59.6961ZM119.998 59.6294C119.998 59.6232 119.998 59.6197 119.998 59.6145C119.998 59.6197 119.998 59.6241 119.998 59.6294ZM119.997 59.3618V59.3601C119.997 59.3601 119.997 59.3609 119.997 59.3618Z" fill="#3BC0F3"/>
<path id="path22" d="M119.992 60.4742C119.746 93.3876 92.9852 120 59.9998 120C50.7565 120 41.9976 117.913 34.1791 114.178C33.1468 110.557 33.6632 106.013 37.0138 104.433C38.2388 103.855 39.633 103.795 40.9886 103.74C45.071 103.579 49.1772 103.378 53.1825 102.561C66.925 99.758 78.4794 89.7519 85.4976 77.6121C90.8277 68.3773 94.3557 57.3009 103.292 51.485C104.763 50.5296 106.388 49.7364 108.129 49.5127C111.881 49.0354 115.586 51.3692 117.65 54.5504C118.814 56.3525 119.538 58.3712 119.992 60.4742Z" fill="#2A95DA"/>
<path id="path44" d="M59.5507 119.999C59.5489 119.998 59.5463 119.998 59.5446 119.998H59.5481C59.5489 119.998 59.5498 119.999 59.5507 119.999Z" fill="#388599"/>
<path id="path54" d="M60.7744 119.996C60.7867 119.996 60.7946 119.996 60.8069 119.995C60.7964 119.995 60.7841 119.996 60.7744 119.996Z" fill="#7BD4E9"/>
<path id="path58" d="M60.9674 119.993C60.9797 119.992 60.9894 119.992 61.0008 119.992C60.9911 119.992 60.9771 119.993 60.9674 119.993Z" fill="#7BD4E9"/>
<path id="path82" d="M34.1775 114.173C28.9046 111.654 24.0581 108.388 19.7742 104.511C19.7791 104.514 19.7839 104.518 19.7887 104.522C24.0683 108.394 28.9107 111.656 34.1772 114.173C34.1772 114.173 34.1772 114.173 34.1775 114.173Z" fill="#38849A"/>
<path id="path84" d="M34.1772 114.173C28.9108 111.656 24.0684 108.394 19.7888 104.522C24.0544 107.775 28.7696 110.471 33.8232 112.499C33.9037 113.068 34.0233 113.631 34.1772 114.173Z" fill="#68CEED"/>
<path id="path86" d="M107.471 96.6988C107.474 96.6944 107.479 96.6891 107.482 96.6847C107.478 96.69 107.476 96.6935 107.471 96.6988Z" fill="#7BD4E9"/>
<path id="path88" d="M107.512 96.6461C107.522 96.6338 107.532 96.6197 107.542 96.6083C107.531 96.6215 107.522 96.632 107.512 96.6461Z" fill="#7BD4E9"/>
<path id="path90" d="M120 60.0039C120 59.9829 120 59.9627 120 59.9425C120 59.9627 120 59.9837 120 60.0039ZM120 59.925C120 59.91 120 59.896 120 59.8811C120 59.8951 120 59.9109 120 59.925ZM120 59.86C120 59.8469 119.999 59.8328 119.999 59.8197C119.999 59.8337 120 59.846 120 59.86ZM119.999 59.7346C119.999 59.7223 119.999 59.7082 119.999 59.696C119.999 59.7082 119.999 59.7214 119.999 59.7346ZM119.999 59.6749C119.999 59.66 119.999 59.6442 119.998 59.6293C119.999 59.6433 119.999 59.6609 119.999 59.6749ZM119.996 59.36C119.941 54.0959 119.206 48.9915 117.874 44.1363C116.968 40.8218 115.788 37.6238 114.354 34.5654C117.891 42.1062 119.903 50.5023 119.996 59.36Z" fill="#388599"/>
<path id="path92" d="M107.552 96.5943C115.266 86.5821 119.89 74.0643 119.992 60.4743C119.997 60.3593 119.999 60.24 120 60.1233C119.973 73.8493 115.335 86.4962 107.552 96.5943ZM117.874 44.1364C116.628 42.1861 115.166 40.3358 113.415 38.8619C110.474 29.4559 105.28 21.0448 98.4627 14.2621C98.4706 14.1683 98.4776 14.0744 98.4846 13.9814C105.166 19.5683 110.613 26.587 114.354 34.5655C115.788 37.6239 116.969 40.8218 117.874 44.1364Z" fill="#7BD4E9"/>
<path id="path94" d="M119.992 60.4743C119.537 58.3713 118.814 56.3525 117.65 54.5505C117.176 53.8205 116.618 53.1362 115.99 52.5194C115.659 47.795 114.779 43.2223 113.415 38.8619C115.165 40.3358 116.628 42.1861 117.874 44.1365C119.206 48.9917 119.941 54.096 119.996 59.3601V59.3618C119.997 59.4452 119.998 59.5303 119.998 59.6145C119.998 59.6198 119.998 59.6233 119.998 59.6294C119.999 59.6443 119.999 59.6601 119.999 59.675C119.999 59.682 119.999 59.6882 119.999 59.6961C119.999 59.7084 119.999 59.7224 119.999 59.7347C119.999 59.7435 119.999 59.7505 119.999 59.7592C119.999 59.7715 119.999 59.7847 119.999 59.7979C119.999 59.8049 119.999 59.8128 119.999 59.8198C119.999 59.833 120 59.847 120 59.8602C120 59.8672 120 59.8742 120 59.8812C120 59.8961 120 59.9102 120 59.9251C120 59.9312 120 59.9365 120 59.9426C120 59.9628 120 59.983 120 60.004C120 60.0444 120 60.083 120 60.1234C119.999 60.24 119.997 60.3594 119.992 60.4743Z" fill="#68CEED"/>
<path id="path96" d="M59.9997 120C59.9725 120 59.9453 120 59.9181 120C59.9128 120 59.9084 120 59.9041 120C59.8769 120 59.8514 120 59.8251 120C59.8216 120 59.8172 120 59.8137 120C59.8128 120 59.811 120 59.8102 120C59.7549 120 59.6996 120 59.6443 119.999C59.6417 119.999 59.64 119.999 59.6373 119.999C59.6356 119.999 59.6356 119.999 59.6338 119.999C59.6049 119.999 59.5785 119.999 59.5505 119.999C59.5496 119.999 59.5487 119.998 59.5478 119.998C59.5461 119.998 59.5443 119.998 59.5426 119.998C50.4677 119.931 41.8685 117.847 34.1776 114.173C34.1773 114.173 34.1773 114.173 34.1773 114.173C34.0234 113.63 33.9038 113.068 33.8232 112.499C40.7217 115.266 48.2523 116.788 56.1401 116.788C89.2799 116.788 116.14 89.9291 116.14 56.792C116.14 55.3558 116.09 53.9301 115.99 52.5193C116.618 53.1361 117.176 53.8204 117.65 54.5504C118.814 56.3525 119.538 58.3712 119.992 60.4742C119.89 74.0642 115.266 86.5821 107.552 96.5943C107.549 96.5987 107.544 96.6039 107.542 96.6083C107.532 96.6197 107.522 96.6338 107.512 96.646C107.503 96.6575 107.492 96.6724 107.482 96.6846C107.479 96.689 107.474 96.6943 107.471 96.6987C96.9386 110.303 80.6868 119.258 62.3204 119.956H62.3195C62.287 119.958 62.2555 119.959 62.2239 119.96H62.223C62.1932 119.961 62.1625 119.962 62.1317 119.963C62.13 119.963 62.1282 119.963 62.1265 119.963C62.0642 119.966 62.0019 119.967 61.9405 119.969C61.9378 119.969 61.9361 119.969 61.9335 119.97C61.9036 119.971 61.8729 119.972 61.8431 119.973C61.8405 119.973 61.8396 119.973 61.8378 119.973C61.8097 119.974 61.779 119.975 61.751 119.975C61.7466 119.975 61.7448 119.975 61.7404 119.975C61.7123 119.976 61.6834 119.977 61.6553 119.978C61.6518 119.978 61.6483 119.978 61.6439 119.978C61.6185 119.979 61.5921 119.98 61.5658 119.981C61.5597 119.981 61.5535 119.981 61.5474 119.981C61.5211 119.982 61.4983 119.982 61.4719 119.982C61.4658 119.982 61.4562 119.983 61.4509 119.983C61.4263 119.983 61.4009 119.984 61.3772 119.985C61.3693 119.985 61.3623 119.985 61.3544 119.985C61.3298 119.986 61.3079 119.986 61.2842 119.987C61.2763 119.987 61.2649 119.987 61.257 119.988C61.235 119.988 61.214 119.989 61.1921 119.989C61.1815 119.989 61.171 119.989 61.1605 119.989C61.1385 119.989 61.1192 119.99 61.0973 119.99C61.0877 119.99 61.0736 119.991 61.064 119.991C61.042 119.991 61.0236 119.992 61.0008 119.992C60.9894 119.992 60.9797 119.992 60.9675 119.993C60.9455 119.993 60.9245 119.993 60.9025 119.994C60.8902 119.994 60.8832 119.994 60.8709 119.994C60.849 119.995 60.8288 119.995 60.8069 119.995C60.7946 119.996 60.7867 119.996 60.7744 119.996C60.7542 119.996 60.7376 119.996 60.7174 119.996C60.7034 119.996 60.6911 119.996 60.677 119.996C60.6586 119.996 60.6437 119.997 60.6253 119.997C60.6095 119.997 60.5963 119.997 60.5805 119.997C60.5603 119.997 60.5437 119.998 60.5235 119.998C60.5094 119.998 60.498 119.998 60.484 119.998C60.4638 119.998 60.4454 119.999 60.4252 119.999C60.4129 119.999 60.3989 119.999 60.3875 119.999C60.3708 119.999 60.3559 119.999 60.3401 119.999C60.3234 119.999 60.3059 120 60.2901 120C60.2717 120 60.2559 120 60.2375 120C60.2234 120 60.2076 120 60.1936 120C60.1717 120 60.1471 120 60.1243 120C60.1146 120 60.1067 120 60.0971 120C60.0646 120 60.0322 120 59.9997 120Z" fill="#54C7E8"/>
<path id="path98" d="M13.5577 97.9936C5.08473 87.6488 0 74.4229 0 60.0039C0 26.8667 26.8611 -6.75207e-05 59.9998 -6.75207e-05C74.6434 -6.75207e-05 88.0622 5.24469 98.4847 13.9725C98.4847 13.9751 98.4847 13.9777 98.4847 13.9813C97.8284 13.4329 97.1607 12.8977 96.4825 12.3775C97.1563 12.9907 97.817 13.6189 98.4627 14.262C97.8056 22.4151 93.5204 30.2287 87.3462 35.6866C80.0051 42.1798 70.2836 45.5769 60.5236 46.4779C51.3496 47.3175 41.8054 46.1393 33.1468 49.2977C26.3141 51.8007 20.5137 57.0077 17.3017 63.5395C14.0893 70.0634 13.5035 77.8428 15.699 84.7834C16.8931 88.5578 18.7805 92.9945 16.3461 96.1292C15.6377 97.039 14.6513 97.6549 13.5577 97.9936ZM16.8568 34.9427C11.9307 34.9427 7.74673 43.6731 6.77467 47.7553C6.25824 49.9224 6.06214 52.1683 6.22806 54.3915C6.31781 55.5987 6.51592 56.8253 7.08798 57.8921C7.65925 58.9598 8.65903 59.8538 9.85518 60.0425C10.0159 60.067 10.1774 60.0793 10.3381 60.0793C11.297 60.0793 12.2457 59.6503 12.9784 59.0177C13.8339 58.2781 14.4306 57.285 14.92 56.2655C16.0462 53.9178 16.7057 51.2954 18.3558 49.281C19.5335 47.8439 21.169 46.7823 22.1067 45.1786C23.5904 42.6413 22.8819 39.1969 20.8883 37.0368C19.5232 35.5577 18.1636 34.9427 16.8568 34.9427ZM58.86 3.14786C46.3151 3.14786 33.7534 8.82073 25.7805 18.5548C24.1491 20.5464 22.6843 22.7195 21.8466 25.1542C21.0086 27.5879 20.8389 30.3173 21.763 32.7203C23.2072 36.4754 27.1428 38.8608 31.1326 39.3837C31.8375 39.4759 32.5439 39.5188 33.2499 39.5188C36.5388 39.5188 39.819 38.588 42.9082 37.3922C46.6608 35.9411 50.2634 34.089 54.1143 32.9186C60.9079 30.8551 68.1867 30.9999 75.0847 29.318C78.4969 28.4872 81.9126 27.1361 84.3508 24.6076C86.8172 22.0493 88.5605 17.2871 86.2741 14.1199C83.8779 10.8026 79.748 8.27064 76.0393 6.78004C73.1896 5.63599 70.2635 4.66741 67.2602 4.0252C64.4964 3.43475 61.6782 3.14786 58.86 3.14786Z" fill="#7BD4E9"/>
<path id="path100" d="M98.4627 14.2621C97.8169 13.619 97.1563 12.9909 96.4824 12.3776C97.1606 12.8979 97.8283 13.4331 98.4846 13.9814C98.4776 14.0744 98.4706 14.1683 98.4627 14.2621Z" fill="#9CDEE9"/>
<path id="path102" d="M33.2498 39.519C32.5439 39.519 31.8375 39.476 31.1325 39.3839C27.1428 38.861 23.2072 36.4755 21.763 32.7205C20.8389 30.3175 21.0086 27.5881 21.8466 25.1543C22.6842 22.7197 24.149 20.5465 25.7805 18.555C33.7534 8.8209 46.3151 3.14803 58.86 3.14803C61.6782 3.14803 64.4964 3.43492 67.2601 4.02537C70.2634 4.66758 73.1895 5.63616 76.0393 6.78021C79.748 8.27081 83.8779 10.8028 86.274 14.12C88.5605 17.2872 86.8171 22.0494 84.3508 24.6078C81.9125 27.1362 78.4969 28.4873 75.0847 29.3182C68.1867 31 60.9079 30.8553 54.1142 32.9188C50.2634 34.0892 46.6608 35.9412 42.9082 37.3923C39.8189 38.5882 36.5387 39.519 33.2498 39.519ZM40.0383 14.3095C36.7152 14.3095 33.2975 17.7162 31.5705 20.1763C30.9663 21.0379 30.4378 21.9766 30.2311 23.0075C30.0245 24.0375 30.1746 25.1763 30.8175 26.0089C31.4807 26.8651 32.574 27.2652 33.6721 27.2652C34.0673 27.2652 34.4628 27.2135 34.8395 27.1126C36.2635 26.7327 37.461 25.7772 38.5265 24.7604C39.4794 23.8515 40.3656 22.8715 41.1745 21.8336C42.8012 19.7455 44.6805 14.6807 40.4331 14.3262C40.3015 14.3157 40.1699 14.3095 40.0383 14.3095ZM59.6909 6.43542C58.4661 6.43542 57.2439 6.49683 56.0287 6.65124C53.0965 7.02411 50.187 7.96725 47.8251 9.74387C46.2063 10.9616 44.7937 12.7821 44.9385 14.8026C45.1131 17.2425 47.54 19.0033 49.9563 19.3841C50.4783 19.4665 51.0021 19.5008 51.5259 19.5008C53.4272 19.5008 55.3364 19.0428 57.2281 18.7269C62.6416 17.8198 68.1761 18.0681 73.6493 17.6504C76.0735 17.4662 79.7699 16.402 79.5181 13.233C79.3032 10.5212 75.1128 8.87969 72.9588 8.16378C70.3556 7.29784 67.6093 6.96182 64.8772 6.71353C63.154 6.55824 61.4202 6.43542 59.6909 6.43542Z" fill="#9CDEE9"/>
<path id="path104" d="M10.338 60.0794C10.1773 60.0794 10.0158 60.0671 9.85507 60.0426C8.65893 59.8539 7.65915 58.9599 7.08788 57.8922C6.51582 56.8254 6.31771 55.5988 6.22795 54.3916C6.06204 52.1684 6.25813 49.9225 6.77456 47.7554C7.74662 43.6732 11.9306 34.9428 16.8567 34.9428C18.1635 34.9428 19.5231 35.5578 20.8882 37.037C22.8818 39.197 23.5903 42.6414 22.1066 45.1787C21.1689 46.7824 19.5334 47.844 18.3557 49.2811C16.7055 51.2955 16.0461 53.9179 14.9199 56.2656C14.4305 57.2851 13.8338 58.2782 12.9783 59.0178C12.2456 59.6504 11.2969 60.0794 10.338 60.0794Z" fill="#9CDEE9"/>
<path id="path106" d="M51.5258 19.5006C51.002 19.5006 50.4782 19.4664 49.9561 19.3839C47.5398 19.0032 45.1129 17.2424 44.9383 14.8025C44.7936 12.782 46.2062 10.9615 47.8249 9.74374C50.1869 7.96713 53.0963 7.02399 56.0285 6.65112C57.2437 6.49671 58.4659 6.43529 59.6907 6.43529C61.4201 6.43529 63.1538 6.55812 64.877 6.7134C67.6092 6.96169 70.3554 7.29772 72.9586 8.16365C75.1126 8.87956 79.303 10.5211 79.518 13.2329C79.7698 16.4019 76.0734 17.4661 73.6491 17.6503C68.176 18.0679 62.6414 17.8196 57.2279 18.7268C55.3363 19.0427 53.4271 19.5006 51.5258 19.5006Z" fill="#B6E7ED"/>
<path id="path108" d="M33.672 27.2651C32.5738 27.2651 31.4805 26.865 30.8174 26.0088C30.1744 25.1762 30.0243 24.0374 30.2309 23.0074C30.4376 21.9765 30.9661 21.0377 31.5703 20.1762C33.2973 17.7161 36.715 14.3094 40.0381 14.3094C40.1697 14.3094 40.3013 14.3156 40.4329 14.3261C44.6804 14.6805 42.801 19.7454 41.1743 21.8335C40.3654 22.8714 39.4792 23.8514 38.5264 24.7603C37.4608 25.7771 36.2633 26.7326 34.8393 27.1125C34.4627 27.2133 34.0671 27.2651 33.672 27.2651Z" fill="#B6E7ED"/>
<path id="path110" d="M90.9634 42.4518C88.1207 44.289 85.8035 46.9307 84.3532 49.9891C83.8513 51.0463 83.4442 52.2 83.5644 53.3642C83.6846 54.5284 84.4576 55.6927 85.6017 55.941C86.4159 56.1182 87.2749 55.8102 87.9417 55.3101C88.6076 54.8092 89.1148 54.131 89.6131 53.4625C91.0371 51.549 92.462 49.6355 93.8869 47.7229C94.938 46.3104 96.4313 44.1293 95.3504 42.3194C94.3256 40.6033 92.2532 41.6184 90.9634 42.4518Z" fill="#52C7F1"/>
<path id="path112" d="M79.827 55.3908C78.8768 55.2724 78.0336 55.9786 77.3922 56.6893C75.662 58.608 74.3881 60.9347 73.7037 63.4264C73.4686 64.2818 73.3045 65.2048 73.5932 66.0435C73.7353 66.4567 73.9976 66.8428 74.3811 67.0542C75.2295 67.5209 76.2718 66.9875 77.0439 66.4006C79.5278 64.5099 81.4616 61.9051 82.5513 58.9792C83.1681 57.321 81.6002 55.6111 79.827 55.3908Z" fill="#52C7F1"/>
<path id="path114" d="M48.9668 105.153C48.2096 105.226 47.427 105.265 46.7444 105.598C46.0609 105.932 45.4976 106.653 45.616 107.404C45.752 108.263 46.6628 108.757 47.4963 109.005C50.5417 109.911 53.8442 109.284 56.8291 108.195C57.9504 107.787 65.1985 103.968 61.481 102.328C60.0043 101.675 57.0317 103.312 55.5884 103.741C53.423 104.385 51.2199 104.936 48.9668 105.153Z" fill="#1EACEA"/>
<path id="path116" d="M64.5569 100.653C63.9314 101.067 63.3347 101.694 63.369 102.444C63.4049 103.241 64.1884 103.851 64.9816 103.938C65.7748 104.024 66.5565 103.707 67.2575 103.325C68.0454 102.897 68.8149 102.344 69.208 101.539C70.7223 98.4366 65.5045 100.025 64.5569 100.653Z" fill="#1EACEA"/>
<path id="path118" d="M20.0225 87.412C19.3025 87.4111 18.5519 86.8558 18.0569 86.2574C16.4149 84.2764 15.7631 81.7049 15.6181 79.1817C15.5276 77.6033 15.0183 73.6746 17.5367 73.6746C17.5508 73.6746 17.5655 73.6746 17.5799 73.6755C18.4497 73.6904 19.1952 74.323 19.6873 75.0398C20.5914 76.3575 20.8793 77.9911 21.1114 79.5721C21.3845 81.4303 21.6118 83.3069 21.5312 85.1844C21.498 85.9635 21.3376 86.861 20.6576 87.2453C20.454 87.3611 20.2394 87.412 20.0225 87.412Z" fill="#3BC0F3"/>
<path id="path120" d="M19.2266 70.9979C18.7557 70.9979 18.2712 70.9128 17.9085 70.6197C17.3618 70.1784 17.2399 69.3932 17.2861 68.6913C17.3834 67.2122 18.4435 64.5143 20.1294 64.1634C20.2771 64.1327 20.4129 64.1178 20.5382 64.1178C22.5402 64.1178 21.8218 67.8421 21.4699 68.9607C21.243 69.6827 20.9523 70.4811 20.271 70.811C19.9974 70.9435 19.6887 70.983 19.3854 70.9952C19.3325 70.997 19.2798 70.9979 19.2266 70.9979Z" fill="#3BC0F3"/>
<path id="path122" d="M102.047 74.3792C97.4292 83.4386 91.2033 91.6768 83.7472 98.592C81.1984 100.956 78.439 103.254 76.8922 106.368C76.636 106.884 76.4149 107.491 76.6377 108.022C77.0405 108.98 78.4188 108.887 79.4103 108.576C85.588 106.642 91.0059 102.673 95.2998 97.8305C99.5929 92.9858 102.823 87.284 105.486 81.3856C107.62 76.6585 109.971 71.2629 110.41 66.0357C110.488 65.1109 110.572 62.0157 109.424 61.5525C108.083 61.0129 106.566 65.1443 106.1 66.0585C104.7 68.8081 103.448 71.6305 102.047 74.3792Z" fill="#1EACEA"/>
</g>
</svg>
