<svg width="60" height="60" viewBox="0 0 60 60" fill="none" xmlns="http://www.w3.org/2000/svg">
<path d="M60 30.002C60 46.5666 46.5694 60 29.9999 60C21.326 60 13.5114 56.3182 8.03837 50.4295C7.59915 49.9632 7.1795 49.4864 6.77884 48.9968C2.54237 43.8245 0 37.2115 0 30.002C0 13.4334 13.4305 3.43323e-05 29.9999 3.43323e-05C37.3217 3.43323e-05 44.0311 2.62241 49.2423 6.9863C53.8644 10.8527 57.3038 16.0869 58.937 22.0682C59.6302 24.5945 60 27.2559 60 30.002Z" fill="#52C7F1"/>
<path d="M17.0895 57.089C13.6617 55.4519 10.5918 53.1831 8.03833 50.4295C8.63022 51.0665 9.24952 51.6776 9.8944 52.261C9.89199 52.2588 9.88958 52.257 9.88716 52.2553C12.0291 54.1942 14.4523 55.8269 17.0888 57.0864C17.089 57.0872 17.0891 57.0881 17.0895 57.089ZM60 30.0617C60 30.0415 60 30.0222 60 30.002C60 30.0217 60 30.0415 60 30.0617Z" fill="#0E1424"/>
<path d="M16.9116 56.2494C14.3848 55.2356 12.0272 53.8876 9.8944 52.261C9.24952 51.6776 8.63022 51.0665 8.03833 50.4296C9.1942 49.1772 10.8887 48.7341 12.6397 48.7341C13.6077 48.7341 14.5927 48.8696 15.5141 49.078C17.6603 49.5645 19.8248 50.3493 21.9902 50.3493C22.4635 50.3493 22.9369 50.312 23.4098 50.2256C26.3565 49.69 28.675 47.3255 30.1078 44.6953C31.5405 42.0646 32.2723 39.1185 33.3431 36.3224C35.523 30.6337 39.1475 25.5039 43.7889 21.5563C46.164 19.534 49.248 17.7824 52.2316 17.7824C53.2151 17.7824 54.1873 17.9724 55.1199 18.4058C55.6968 18.6742 56.2241 19.0239 56.7076 19.4309C57.3893 21.6111 57.8293 23.8975 57.9951 26.2597C57.062 25.3411 55.8311 24.7257 54.5571 24.7257C54.3934 24.7257 54.2289 24.7358 54.0644 24.7564C53.1941 24.8683 52.3816 25.2648 51.6459 25.7425C47.1778 28.6505 45.4138 34.1887 42.7487 38.8061C39.2396 44.876 33.4625 49.879 26.5912 51.2806C24.5886 51.689 22.5355 51.7894 20.4942 51.8701C19.8164 51.8973 19.1194 51.9276 18.5068 52.2167C17.0828 52.8879 16.6827 54.6298 16.9116 56.2494ZM60 29.9713C60 29.9682 60 29.9656 60 29.9625C60 29.9652 60 29.9682 60 29.9713ZM59.9995 29.9099C59.9995 29.9064 59.9995 29.9024 59.9995 29.8989C59.9995 29.9024 59.9995 29.9059 59.9995 29.9099ZM59.9995 29.8796C59.9995 29.8752 59.9995 29.8717 59.9995 29.8673C59.9995 29.8713 59.9995 29.8752 59.9995 29.8796ZM59.9995 29.848C59.9995 29.8441 59.9995 29.841 59.9995 29.8375C59.9995 29.841 59.9995 29.8445 59.9995 29.848ZM59.9991 29.8147C59.9991 29.8116 59.9991 29.8099 59.9991 29.8072C59.9991 29.8099 59.9991 29.8121 59.9991 29.8147ZM59.9982 29.6809V29.68C59.9982 29.68 59.9982 29.6805 59.9982 29.6809Z" fill="#3BC0F3"/>
<path d="M59.9961 30.2371C59.8728 46.6938 46.4926 60 29.9999 60C25.3783 60 20.9988 58.9564 17.0896 57.089C16.5734 55.2786 16.8316 53.0063 18.5069 52.2167C19.1194 51.9276 19.8165 51.8973 20.4943 51.8701C22.5356 51.7894 24.5886 51.689 26.5913 51.2806C33.4626 49.879 39.2397 44.876 42.7488 38.8061C45.4139 34.1887 47.1779 28.6505 51.646 25.7425C52.3817 25.2648 53.1941 24.8682 54.0645 24.7564C55.9404 24.5177 57.793 25.6846 58.8252 27.2752C59.4069 28.1762 59.7688 29.1856 59.9961 30.2371Z" fill="#2A95DA"/>
<path d="M29.7753 59.9996C29.7744 59.9989 29.7731 59.9989 29.7722 59.9989H29.774C29.7744 59.9989 29.7749 59.9996 29.7753 59.9996Z" fill="#388599"/>
<path d="M30.3872 59.9978C30.3934 59.9978 30.3973 59.9978 30.4035 59.9971C30.3982 59.9971 30.392 59.9978 30.3872 59.9978Z" fill="#7BD4E9"/>
<path d="M30.4838 59.9964C30.4899 59.9957 30.4948 59.9957 30.5005 59.9957C30.4956 59.9957 30.4886 59.9964 30.4838 59.9964Z" fill="#7BD4E9"/>
<path d="M17.0887 57.0864C14.4523 55.8269 12.029 54.1942 9.88708 52.2553C9.8895 52.257 9.89191 52.2588 9.89432 52.261C12.0341 54.1968 14.4553 55.8283 17.0886 57.0864C17.0886 57.0864 17.0886 57.0864 17.0887 57.0864Z" fill="#38849A"/>
<path d="M17.0886 57.0864C14.4554 55.8283 12.0342 54.1968 9.89441 52.261C12.0272 53.8876 14.3848 55.2356 16.9116 56.2494C16.9519 56.5341 17.0117 56.8153 17.0886 57.0864Z" fill="#68CEED"/>
<path d="M53.7354 48.3494C53.7371 48.3472 53.7393 48.3445 53.7411 48.3423C53.7389 48.345 53.738 48.3467 53.7354 48.3494Z" fill="#7BD4E9"/>
<path d="M53.756 48.3231C53.7608 48.3169 53.7661 48.3099 53.7709 48.3042C53.7657 48.3107 53.7613 48.316 53.756 48.3231Z" fill="#7BD4E9"/>
<path d="M59.9999 30.002C59.9999 29.9914 59.9999 29.9813 59.9999 29.9712C59.9999 29.9813 59.9999 29.9919 59.9999 30.002ZM59.9999 29.9625C59.9999 29.955 59.9999 29.948 59.9999 29.9405C59.9999 29.9476 59.9999 29.9555 59.9999 29.9625ZM59.9999 29.93C59.9999 29.9234 59.9995 29.9164 59.9995 29.9098C59.9995 29.9169 59.9999 29.923 59.9999 29.93ZM59.9995 29.8673C59.9995 29.8611 59.9995 29.8541 59.9995 29.848C59.9995 29.8541 59.9995 29.8607 59.9995 29.8673ZM59.9995 29.8375C59.9995 29.83 59.9995 29.8221 59.9991 29.8146C59.9995 29.8217 59.9995 29.8304 59.9995 29.8375ZM59.9982 29.68C59.9705 27.048 59.6029 24.4958 58.937 22.0682C58.4842 20.4109 57.8938 18.8119 57.1769 17.2827C58.9453 21.0531 59.9517 25.2512 59.9982 29.68Z" fill="#388599"/>
<path d="M53.7761 48.2972C57.6331 43.2911 59.9451 37.0321 59.9959 30.2371C59.9986 30.1797 59.9995 30.12 59.9999 30.0617C59.9863 36.9247 57.6674 43.2481 53.7761 48.2972ZM58.9369 22.0682C58.314 21.0931 57.5827 20.1679 56.7075 19.4309C55.237 14.728 52.6399 10.5224 49.2313 7.13108C49.2352 7.08414 49.2387 7.0372 49.2422 6.99071C52.5829 9.78416 55.3063 13.2935 57.1769 17.2828C57.8937 18.812 58.4842 20.4109 58.9369 22.0682Z" fill="#7BD4E9"/>
<path d="M59.996 30.2371C59.7688 29.1856 59.4069 28.1762 58.8252 27.2752C58.5883 26.9102 58.3088 26.5681 57.9951 26.2597C57.8293 23.8975 57.3893 21.6111 56.7076 19.4309C57.5828 20.1679 58.3141 21.093 58.937 22.0682C59.603 24.4958 59.9706 27.048 59.9982 29.68V29.6809C59.9987 29.7226 59.9991 29.7651 59.9991 29.8072C59.9991 29.8099 59.9991 29.8116 59.9991 29.8147C59.9995 29.8221 59.9995 29.83 59.9995 29.8375C59.9995 29.841 59.9995 29.8441 59.9995 29.848C59.9995 29.8542 59.9995 29.8612 59.9995 29.8673C59.9995 29.8717 59.9995 29.8752 59.9995 29.8796C59.9995 29.8857 59.9995 29.8923 59.9995 29.8989C59.9995 29.9024 59.9995 29.9064 59.9995 29.9099C59.9995 29.9165 60 29.9235 60 29.9301C60 29.9336 60 29.9371 60 29.9406C60 29.948 60 29.9551 60 29.9625C60 29.9656 60 29.9682 60 29.9713C60 29.9814 60 29.9915 60 30.002C60 30.0222 60 30.0415 60 30.0617C59.9995 30.12 59.9987 30.1797 59.996 30.2371Z" fill="#68CEED"/>
<path d="M29.9998 60C29.9862 60 29.9726 60 29.959 60C29.9564 60 29.9542 60 29.952 60C29.9384 60 29.9257 60 29.9125 60C29.9108 60 29.9086 60 29.9068 60C29.9064 60 29.9055 60 29.9051 60C29.8774 60 29.8498 60 29.8222 59.9996C29.8209 59.9996 29.82 59.9996 29.8187 59.9996C29.8178 59.9996 29.8178 59.9996 29.8169 59.9996C29.8024 59.9996 29.7893 59.9996 29.7752 59.9996C29.7748 59.9996 29.7744 59.9991 29.7739 59.9991C29.773 59.9991 29.7722 59.9991 29.7713 59.9991C25.2339 59.9653 20.9342 58.9235 17.0888 57.0864C17.0886 57.0864 17.0886 57.0864 17.0886 57.0864C17.0117 56.8153 16.9519 56.5341 16.9116 56.2494C20.3609 57.6329 24.1262 58.394 28.07 58.394C44.6399 58.394 58.0701 44.9646 58.0701 28.396C58.0701 27.6779 58.0451 26.9651 57.9951 26.2597C58.3088 26.5681 58.5882 26.9102 58.8251 27.2752C59.4068 28.1762 59.7688 29.1856 59.996 30.2371C59.9451 37.0321 57.6332 43.2911 53.7762 48.2972C53.7744 48.2994 53.7722 48.302 53.7709 48.3042C53.7661 48.3099 53.7608 48.3169 53.756 48.323C53.7516 48.3287 53.7459 48.3362 53.7411 48.3423C53.7393 48.3445 53.7372 48.3472 53.7354 48.3494C48.4693 55.1514 40.3434 59.6289 31.1602 59.9781H31.1598C31.1435 59.9789 31.1277 59.9794 31.1119 59.9798H31.1115C31.0966 59.9807 31.0812 59.9811 31.0659 59.9816C31.065 59.9816 31.0641 59.9816 31.0632 59.9816C31.0321 59.9829 31.0009 59.9838 30.9702 59.9846C30.9689 59.9846 30.968 59.9846 30.9667 59.9851C30.9518 59.9855 30.9365 59.986 30.9215 59.9864C30.9202 59.9864 30.9198 59.9864 30.9189 59.9864C30.9049 59.9868 30.8895 59.9873 30.8755 59.9877C30.8733 59.9877 30.8724 59.9877 30.8702 59.9877C30.8562 59.9882 30.8417 59.9886 30.8277 59.989C30.8259 59.989 30.8242 59.989 30.822 59.989C30.8092 59.9895 30.7961 59.9899 30.7829 59.9904C30.7798 59.9904 30.7768 59.9904 30.7737 59.9904C30.7605 59.9908 30.7491 59.9908 30.736 59.9912C30.7329 59.9912 30.7281 59.9917 30.7254 59.9917C30.7132 59.9917 30.7004 59.9921 30.6886 59.9925C30.6846 59.9925 30.6811 59.9925 30.6772 59.9925C30.6649 59.993 30.6539 59.993 30.6421 59.9934C30.6381 59.9934 30.6324 59.9934 30.6285 59.9939C30.6175 59.9939 30.607 59.9943 30.596 59.9943C30.5908 59.9943 30.5855 59.9947 30.5802 59.9947C30.5693 59.9947 30.5596 59.9952 30.5487 59.9952C30.5438 59.9952 30.5368 59.9956 30.532 59.9956C30.521 59.9956 30.5118 59.996 30.5004 59.996C30.4947 59.996 30.4899 59.996 30.4837 59.9965C30.4728 59.9965 30.4622 59.9965 30.4513 59.9969C30.4451 59.9969 30.4416 59.9969 30.4355 59.9969C30.4245 59.9974 30.4144 59.9974 30.4034 59.9974C30.3973 59.9978 30.3934 59.9978 30.3872 59.9978C30.3771 59.9978 30.3688 59.9978 30.3587 59.9982C30.3517 59.9982 30.3455 59.9982 30.3385 59.9982C30.3293 59.9982 30.3218 59.9987 30.3126 59.9987C30.3047 59.9987 30.2982 59.9987 30.2903 59.9987C30.2802 59.9987 30.2718 59.9991 30.2617 59.9991C30.2547 59.9991 30.249 59.9991 30.242 59.9991C30.2319 59.9991 30.2227 59.9996 30.2126 59.9996C30.2065 59.9996 30.1995 59.9996 30.1937 59.9996C30.1854 59.9996 30.178 59.9996 30.1701 59.9996C30.1617 59.9996 30.153 60 30.1451 60C30.1358 60 30.1279 60 30.1187 60C30.1117 60 30.1038 60 30.0968 60C30.0858 60 30.0735 60 30.0621 60C30.0573 60 30.0534 60 30.0485 60C30.0323 60 30.0161 60 29.9998 60Z" fill="#54C7E8"/>
<path d="M6.77884 48.9968C2.54237 43.8244 0 37.2115 0 30.0019C0 13.4334 13.4305 -4.57764e-05 29.9999 -4.57764e-05C37.3217 -4.57764e-05 44.0311 2.62233 49.2423 6.98623C49.2423 6.98754 49.2423 6.98886 49.2423 6.99062C48.9142 6.71645 48.5803 6.44886 48.2412 6.18872C48.5782 6.49535 48.9085 6.80944 49.2314 7.13099C48.9028 11.2075 46.7602 15.1143 43.6731 17.8433C40.0026 21.0899 35.1418 22.7884 30.2618 23.2389C25.6748 23.6588 20.9027 23.0696 16.5734 24.6488C13.1571 25.9004 10.2568 28.5039 8.65083 31.7698C7.04464 35.0317 6.75177 38.9214 7.84951 42.3917C8.44657 44.2789 9.39025 46.4972 8.17305 48.0646C7.81885 48.5195 7.32567 48.8274 6.77884 48.9968ZM8.42841 17.4713C5.96536 17.4713 3.87336 21.8365 3.38733 23.8777C3.12912 24.9612 3.03107 26.0842 3.11403 27.1957C3.15891 27.7994 3.25796 28.4126 3.54399 28.946C3.82962 29.4799 4.32952 29.9269 4.92759 30.0212C5.00796 30.0335 5.08868 30.0396 5.16905 30.0396C5.6485 30.0396 6.12285 29.8251 6.48921 29.5089C6.91693 29.1391 7.21529 28.6425 7.46 28.1327C8.0231 26.9589 8.35283 25.6477 9.17792 24.6405C9.76674 23.922 10.5845 23.3912 11.0533 22.5893C11.7952 21.3206 11.441 19.5984 10.4442 18.5184C9.7616 17.7788 9.08181 17.4713 8.42841 17.4713ZM29.43 1.57392C23.1576 1.57392 16.8767 4.41035 12.8902 9.2774C12.0745 10.2732 11.3421 11.3598 10.9233 12.5771C10.5043 13.7939 10.4195 15.1586 10.8815 16.3602C11.6036 18.2377 13.5714 19.4304 15.5663 19.6919C15.9188 19.7379 16.272 19.7594 16.6249 19.7594C18.2694 19.7594 19.9095 19.294 21.4541 18.6961C23.3304 17.9705 25.1317 17.0445 27.0571 16.4593C30.4539 15.4275 34.0933 15.4999 37.5424 14.659C39.2484 14.2436 40.9563 13.568 42.1754 12.3038C43.4086 11.0246 44.2803 8.64352 43.137 7.05992C41.9389 5.40131 39.874 4.13531 38.0197 3.39001C36.5948 2.81798 35.1317 2.33369 33.6301 2.01259C32.2482 1.71737 30.8391 1.57392 29.43 1.57392Z" fill="#7BD4E9"/>
<path d="M49.2314 7.13104C48.9085 6.8095 48.5782 6.49541 48.2413 6.18878C48.5804 6.44891 48.9142 6.7165 49.2424 6.99067C49.2389 7.03717 49.2354 7.0841 49.2314 7.13104Z" fill="#9CDEE9"/>
<path d="M16.6249 19.7595C16.2719 19.7595 15.9188 19.738 15.5663 19.692C13.5714 19.4305 11.6036 18.2378 10.8815 16.3603C10.4195 15.1588 10.5043 13.794 10.9233 12.5772C11.3421 11.3599 12.0745 10.2733 12.8902 9.2775C16.8767 4.41046 23.1576 1.57403 29.43 1.57403C30.8391 1.57403 32.2482 1.71747 33.6301 2.0127C35.1317 2.3338 36.5948 2.81809 38.0196 3.39012C39.874 4.13542 41.9389 5.40141 43.137 7.06003C44.2803 8.64362 43.4086 11.0247 42.1754 12.3039C40.9563 13.5681 39.2484 14.2437 37.5424 14.6591C34.0933 15.5 30.4539 15.4277 27.0571 16.4594C25.1317 17.0446 23.3304 17.9706 21.4541 18.6962C19.9095 19.2941 18.2694 19.7595 16.6249 19.7595ZM20.0191 7.15479C18.3576 7.15479 16.6487 8.85813 15.7853 10.0882C15.4831 10.5189 15.2189 10.9883 15.1156 11.5038C15.0122 12.0188 15.0873 12.5881 15.4088 13.0044C15.7403 13.4326 16.287 13.6326 16.8361 13.6326C17.0337 13.6326 17.2314 13.6067 17.4197 13.5563C18.1317 13.3663 18.7305 12.8886 19.2633 12.3802C19.7397 11.9258 20.1828 11.4358 20.5873 10.9168C21.4006 9.87278 22.3403 7.34034 20.2166 7.16312C20.1508 7.15785 20.0849 7.15479 20.0191 7.15479ZM29.8455 3.21772C29.233 3.21772 28.6219 3.24843 28.0143 3.32563C26.5482 3.51207 25.0935 3.98364 23.9126 4.87194C23.1032 5.48082 22.3969 6.39106 22.4692 7.40131C22.5566 8.62125 23.77 9.50166 24.9781 9.69205C25.2392 9.73328 25.5011 9.75039 25.763 9.75039C26.7136 9.75039 27.6682 9.5214 28.614 9.36348C31.3208 8.9099 34.0881 9.03404 36.8246 8.82523C38.0368 8.73311 39.885 8.20101 39.7591 6.61654C39.6516 5.26061 37.5564 4.43985 36.4794 4.0819C35.1778 3.64893 33.8047 3.48092 32.4386 3.35678C31.577 3.27913 30.7101 3.21772 29.8455 3.21772Z" fill="#9CDEE9"/>
<path d="M5.169 30.0397C5.08863 30.0397 5.00791 30.0336 4.92754 30.0213C4.32947 29.927 3.82957 29.48 3.54394 28.9461C3.25791 28.4127 3.15885 27.7994 3.11398 27.1958C3.03102 26.0842 3.12907 24.9613 3.38728 23.8777C3.87331 21.8366 5.96531 17.4714 8.42836 17.4714C9.08175 17.4714 9.76155 17.7789 10.4441 18.5185C11.4409 19.5985 11.7952 21.3207 11.0533 22.5894C10.5845 23.3912 9.76669 23.922 9.17787 24.6406C8.35277 25.6478 8.02305 26.959 7.45994 28.1328C7.21524 28.6426 6.91688 29.1391 6.48916 29.5089C6.1228 29.8252 5.64844 30.0397 5.169 30.0397Z" fill="#9CDEE9"/>
<path d="M25.7629 9.75031C25.501 9.75031 25.2391 9.73319 24.9781 9.69196C23.77 9.50158 22.5565 8.62117 22.4692 7.40123C22.3968 6.39097 23.1031 5.48073 23.9125 4.87186C25.0935 3.98355 26.5482 3.51198 28.0143 3.32555C28.6219 3.24834 29.233 3.21763 29.8454 3.21763C30.7101 3.21763 31.577 3.27905 32.4386 3.35669C33.8046 3.48083 35.1778 3.64885 36.4794 4.08181C37.5564 4.43977 39.6516 5.26052 39.759 6.61645C39.885 8.20093 38.0367 8.73303 36.8246 8.82515C34.0881 9.03395 31.3208 8.90981 28.614 9.3634C27.6682 9.52132 26.7136 9.75031 25.7629 9.75031Z" fill="#B6E7ED"/>
<path d="M16.836 13.6326C16.2869 13.6326 15.7403 13.4325 15.4087 13.0044C15.0872 12.5881 15.0122 12.0187 15.1155 11.5037C15.2188 10.9883 15.4831 10.5189 15.7852 10.0881C16.6487 8.85808 18.3575 7.15473 20.0191 7.15473C20.0849 7.15473 20.1507 7.1578 20.2165 7.16306C22.3402 7.34029 21.4005 9.87273 20.5872 10.9168C20.1827 11.4357 19.7396 11.9257 19.2632 12.3802C18.7304 12.8886 18.1317 13.3663 17.4197 13.5562C17.2314 13.6067 17.0336 13.6326 16.836 13.6326Z" fill="#B6E7ED"/>
<path d="M45.4817 21.2259C44.0604 22.1445 42.9018 23.4653 42.1766 24.9945C41.9257 25.5231 41.7221 26.1 41.7822 26.6821C41.8423 27.2642 42.2288 27.8463 42.8009 27.9705C43.208 28.0591 43.6375 27.9051 43.9709 27.6551C44.3038 27.4046 44.5574 27.0655 44.8066 26.7312C45.5186 25.7745 46.231 24.8178 46.9435 23.8615C47.469 23.1552 48.2157 22.0647 47.6752 21.1597C47.1628 20.3017 46.1266 20.8092 45.4817 21.2259Z" fill="#52C7F1"/>
<path d="M39.9135 27.6954C39.4384 27.6362 39.0168 27.9893 38.6961 28.3446C37.831 29.304 37.194 30.4674 36.8518 31.7132C36.7343 32.1409 36.6522 32.6024 36.7966 33.0218C36.8676 33.2284 36.9988 33.4214 37.1905 33.5271C37.6147 33.7605 38.1359 33.4938 38.5219 33.2003C39.7639 32.255 40.7308 30.9525 41.2756 29.4896C41.584 28.6605 40.8001 27.8055 39.9135 27.6954Z" fill="#52C7F1"/>
<path d="M24.4833 52.5764C24.1047 52.6128 23.7134 52.6325 23.3721 52.7992C23.0304 52.9659 22.7487 53.3265 22.808 53.702C22.876 54.1315 23.3313 54.3784 23.7481 54.5026C25.2708 54.9557 26.922 54.6421 28.4145 54.0977C28.9751 53.8933 32.5992 51.9842 30.7404 51.1639C30.0021 50.8375 28.5158 51.656 27.7942 51.8705C26.7115 52.1925 25.6099 52.468 24.4833 52.5764Z" fill="#1EACEA"/>
<path d="M32.2784 50.3264C31.9656 50.5335 31.6673 50.8471 31.6844 51.2222C31.7024 51.6205 32.0942 51.9254 32.4907 51.9688C32.8873 52.0118 33.2782 51.8534 33.6287 51.6626C34.0227 51.4485 34.4074 51.1722 34.6039 50.7695C35.3611 49.2183 32.7522 50.0123 32.2784 50.3264Z" fill="#1EACEA"/>
<path d="M10.0112 43.706C9.6512 43.7056 9.2759 43.4279 9.02843 43.1287C8.20742 42.1382 7.88151 40.8524 7.809 39.5908C7.76377 38.8017 7.50911 36.8373 8.76833 36.8373C8.77535 36.8373 8.78272 36.8373 8.78992 36.8377C9.22484 36.8452 9.59755 37.1615 9.84362 37.5199C10.2957 38.1788 10.4396 38.9956 10.5557 39.786C10.6922 40.7151 10.8058 41.6535 10.7656 42.5922C10.7489 42.9817 10.6688 43.4305 10.3288 43.6226C10.227 43.6805 10.1197 43.706 10.0112 43.706Z" fill="#3BC0F3"/>
<path d="M9.61329 35.499C9.37784 35.499 9.13555 35.4564 8.95424 35.3099C8.68089 35.0892 8.61991 34.6966 8.64303 34.3457C8.69168 33.6061 9.22171 32.2572 10.0647 32.0817C10.1385 32.0664 10.2064 32.0589 10.2691 32.0589C11.2701 32.0589 10.9109 33.9211 10.7349 34.4804C10.6215 34.8414 10.4761 35.2406 10.1355 35.4055C9.99868 35.4718 9.8443 35.4915 9.69265 35.4976C9.66624 35.4985 9.63987 35.499 9.61329 35.499Z" fill="#3BC0F3"/>
<path d="M51.0235 37.1896C48.7146 41.7193 45.6016 45.8384 41.8736 49.296C40.5992 50.4778 39.2195 51.6271 38.4461 53.1839C38.318 53.4418 38.2074 53.7454 38.3189 54.0108C38.5202 54.4898 39.2094 54.4433 39.7051 54.288C42.794 53.3212 45.5029 51.3367 47.6499 48.9152C49.7964 46.4929 51.4113 43.642 52.7431 40.6928C53.81 38.3292 54.9857 35.6314 55.2051 33.0178C55.2441 32.5555 55.2858 31.0078 54.712 30.7762C54.0417 30.5064 53.2832 32.5721 53.0502 33.0292C52.3501 34.404 51.7241 35.8152 51.0235 37.1896Z" fill="#1EACEA"/>
<g filter="url(#filter0_d_34_129822)">
<path d="M31.5443 17.8593C31.2141 17.5183 30.8187 17.2472 30.3816 17.062C29.9446 16.8768 29.4747 16.7814 29 16.7814C28.5253 16.7814 28.0555 16.8768 27.6184 17.062C27.1813 17.2472 26.7859 17.5183 26.4557 17.8593L19.6571 24.8803C19.2675 25.2827 19.0054 25.7927 18.9034 26.3452C18.0779 30.8475 18.0171 35.4567 18.7235 39.9792L18.9728 41.58C19.0522 42.0858 19.4885 42.4583 19.9999 42.4583H24.75C24.9379 42.4583 25.118 42.3837 25.2509 42.2509C25.3837 42.118 25.4583 41.9379 25.4583 41.75V31.8333H32.5417V41.75C32.5417 41.9379 32.6163 42.118 32.7491 42.2509C32.882 42.3837 33.0621 42.4583 33.25 42.4583H38.0001C38.2477 42.4583 38.4871 42.3697 38.6752 42.2087C38.8633 42.0476 38.9876 41.8247 39.0258 41.58L39.2765 39.9792C39.9828 35.4567 39.922 30.8475 39.0966 26.3452C38.995 25.7931 38.7323 25.2834 38.3415 24.8803L31.5443 17.8593Z" fill="white"/>
</g>
<defs>
<filter id="filter0_d_34_129822" x="18.2354" y="16.7814" width="23.5291" height="26.677" filterUnits="userSpaceOnUse" color-interpolation-filters="sRGB">
<feFlood flood-opacity="0" result="BackgroundImageFix"/>
<feColorMatrix in="SourceAlpha" type="matrix" values="0 0 0 0 0 0 0 0 0 0 0 0 0 0 0 0 0 0 127 0" result="hardAlpha"/>
<feOffset dx="2" dy="1"/>
<feComposite in2="hardAlpha" operator="out"/>
<feColorMatrix type="matrix" values="0 0 0 0 0 0 0 0 0 0 0 0 0 0 0 0 0 0 1 0"/>
<feBlend mode="normal" in2="BackgroundImageFix" result="effect1_dropShadow_34_129822"/>
<feBlend mode="normal" in="SourceGraphic" in2="effect1_dropShadow_34_129822" result="shape"/>
</filter>
</defs>
</svg>
