<svg width="120" height="120" viewBox="0 0 120 120" fill="none" xmlns="http://www.w3.org/2000/svg">
<path d="M96.3811 44.4161C96.2131 45.1501 96.234 45.95 96.5718 46.6234C96.7485 46.9744 97.0428 47.3046 97.432 47.3644C97.8612 47.4294 98.2713 47.1477 98.5481 46.8141C99.0931 46.1563 99.3029 45.2845 99.3691 44.4343C99.4153 43.845 99.3891 43.2149 99.0618 42.7227C97.8177 40.8542 96.6205 43.3666 96.3811 44.4161Z" fill="#1EACEA"/>
<path d="M63.2267 89.3014C64.0721 89.7433 65.2048 89.551 65.8552 88.8533C67.4876 87.1027 65.506 84.7628 63.4209 85.3183C61.617 85.7993 61.7058 88.5058 63.2267 89.3014Z" fill="#1EACEA"/>
<path d="M70.9372 61.3382C70.9372 61.7395 70.6107 62.0645 70.2076 62.0645C69.8045 62.0645 69.478 61.7395 69.478 61.3382C69.478 60.937 69.8045 60.612 70.2076 60.612C70.6107 60.612 70.9372 60.937 70.9372 61.3382Z" fill="#1EACEA"/>
<path d="M104 36.9967C104 37.6623 103.458 38.2004 102.79 38.2004C102.123 38.2004 101.581 37.6623 101.581 36.9967C101.581 36.332 102.123 35.7929 102.79 35.7929C103.458 35.7929 104 36.332 104 36.9967Z" fill="#1EACEA"/>
<path d="M51.1004 73.8254C51.009 74.4875 50.6799 75.1799 50.3134 75.5682C50.0757 75.8186 49.7701 76.0015 49.4575 76.154C48.5782 76.5717 47.4925 76.7087 46.6289 76.2528C45.7652 75.7961 45.2681 74.6322 45.7495 73.7794C45.8114 73.6728 45.9028 73.5663 46.0099 73.4675C46.8657 72.6606 49.0057 72.1744 49.9921 72.1892C50.9933 72.2048 51.238 72.9882 51.1004 73.8254Z" fill="#1EACEA"/>
<path d="M47.8443 76.5369C47.8426 76.5369 47.8408 76.5369 47.8391 76.5369C47.4342 76.536 47.0346 76.4563 46.6733 76.2751C46.6698 76.2734 46.6663 76.2717 46.6629 76.2699C46.6576 76.2673 46.6524 76.2647 46.6481 76.2621C46.642 76.2587 46.635 76.2561 46.6289 76.2526C45.9977 75.919 45.5624 75.2074 45.5615 74.5167C45.5615 74.262 45.6198 74.0089 45.7496 73.7792C45.8114 73.6726 45.9028 73.5661 46.0099 73.4673C46.3538 73.7264 46.6672 74.1068 47.0268 74.2741C47.436 74.457 47.8861 74.5479 48.3353 74.5479C48.7654 74.5479 49.1946 74.4647 49.5873 74.2966C50.0391 74.1103 50.5102 73.8165 50.9655 73.8165C51.0108 73.8165 51.056 73.8191 51.1004 73.8252C51.009 74.4873 50.6799 75.1797 50.3134 75.568C50.0757 75.8184 49.7701 76.0013 49.4576 76.1538C48.9613 76.3895 48.3989 76.536 47.8487 76.5369C47.8469 76.5369 47.8452 76.5369 47.8443 76.5369Z" fill="#2394DA"/>
<path d="M78.1521 73.2327C78.1521 73.3532 78.1442 73.4676 78.1216 73.582C77.9536 74.8758 76.8305 75.8872 75.4845 75.8872C74.0096 75.8872 72.8169 74.693 72.8169 73.2327C72.8169 72.646 73.0076 72.1061 73.3288 71.6728C73.8103 71.0029 74.5982 70.5687 75.4845 70.5687C76.9523 70.5687 78.1521 71.7638 78.1521 73.2327Z" fill="#1EACEA"/>
<path d="M75.4845 75.8872C74.0096 75.8872 72.8169 74.693 72.8169 73.2327C72.8169 72.646 73.0076 72.1061 73.3288 71.6728C73.9026 72.0827 74.384 72.9433 75.0561 73.2778C75.6508 73.5707 76.3133 73.7232 76.9767 73.7232C77.2788 73.7232 77.5809 73.692 77.8769 73.6279C77.9614 73.6123 78.045 73.5967 78.1216 73.582C77.9536 74.8758 76.8305 75.8872 75.4845 75.8872Z" fill="#2394DA"/>
<path d="M61.5418 91.6978C61.4582 92.2611 61.2057 92.8019 60.8462 93.2421C60.3569 93.8288 59.6769 94.224 58.9282 94.2162C57.7502 94.2093 56.7116 93.1736 56.6114 92.0106C56.5505 91.3182 56.7116 90.7393 57.0015 90.2904C58.2552 88.343 61.9771 88.6698 61.5418 91.6978Z" fill="#1EACEA"/>
<path d="M58.9493 94.2163C58.9424 94.2163 58.9354 94.2163 58.9284 94.2163C57.7505 94.2094 56.7118 93.1737 56.6117 92.0107C56.603 91.9128 56.5995 91.8175 56.5986 91.7247C56.5986 91.158 56.7519 90.6761 57.0017 90.2905C57.1698 90.8078 57.323 91.333 57.4527 91.5453C58.0665 92.5264 59.1513 93.3003 60.2857 93.3003C60.4363 93.3003 60.5878 93.2864 60.7393 93.2578L60.8464 93.2422C60.829 93.2639 60.8107 93.2847 60.7924 93.3055C60.3144 93.8497 59.6685 94.2137 58.958 94.2163C58.9554 94.2163 58.9519 94.2163 58.9493 94.2163Z" fill="#2394DA"/>
<path d="M59.7012 92.394C59.4862 92.394 59.2511 92.3074 59.0169 92.1003C58.0836 91.277 58.3613 90.1122 59.2624 90.1122C59.4801 90.1122 59.7343 90.1798 60.0164 90.3367C61.1317 90.9563 60.5779 92.394 59.7012 92.394Z" fill="#4FC6E2"/>
<path d="M68.5606 65.4752C68.5606 66.6564 67.5994 67.6123 66.4145 67.6123C65.2287 67.6123 64.2676 66.6564 64.2676 65.4752C64.2676 64.2957 65.2287 63.3381 66.4145 63.3381C67.5994 63.3381 68.5606 64.2957 68.5606 65.4752Z" fill="#1EACEA"/>
<path d="M66.8164 66.6279C66.7651 66.6279 66.7128 66.6245 66.6615 66.6175C66.0677 66.5352 65.5784 65.978 65.5767 65.3817C65.5741 64.7811 66.1861 64.0809 66.8216 64.0809C66.94 64.0809 67.0593 64.1052 67.1751 64.1589C67.9691 64.5246 68.0457 65.7414 67.4955 66.3211C67.3893 66.4329 67.2622 66.5274 67.1159 66.5794C67.0202 66.6132 66.9183 66.6279 66.8164 66.6279Z" fill="#4FC6E2"/>
<path d="M47.0165 67.1567C46.9468 67.4427 46.9233 67.7382 46.9172 68.032C46.9016 68.7115 47.0322 69.4906 47.6094 69.852C48.0743 70.1431 48.7037 70.0573 49.1669 69.7644C49.6301 69.4715 49.9548 69.007 50.2282 68.5338C50.8429 67.4722 52.4701 64.218 50.6156 63.5567C48.9179 62.9518 47.3203 65.9192 47.0165 67.1567Z" fill="#1EACEA"/>
<path d="M49.0136 68.3662C48.8786 68.3662 48.7472 68.3298 48.6392 68.2492C48.4024 68.0716 48.3432 67.744 48.3362 67.4485C48.3153 66.4475 48.7088 65.4448 49.4053 64.7229C49.5534 64.5704 49.6848 64.5062 49.8015 64.5062C50.2594 64.5062 50.478 65.4925 50.4727 65.9405C50.4649 66.4865 50.2838 67.0186 50.04 67.5065C49.9051 67.7778 49.7414 68.0464 49.4907 68.2163C49.3523 68.3107 49.1799 68.3662 49.0136 68.3662Z" fill="#4FC6E2"/>
<path d="M77.5022 46.0993C77.3037 46.8065 76.7917 47.4608 76.0804 47.667C75.1941 47.9253 74.2155 47.4079 73.7106 46.6314C73.2526 45.9164 73.1299 45.0333 73.1682 44.1745L73.176 43.9769C73.2448 42.9725 73.0759 38.7043 74.643 39.168C76.0499 39.5857 77.1661 42.69 77.4482 43.9154C77.4943 44.106 77.5326 44.2958 77.5631 44.4934C77.6397 45.0333 77.6475 45.5819 77.5022 46.0993Z" fill="#1EACEA"/>
<path d="M75.6056 47.7336C75.7562 47.7336 75.9077 47.7146 76.0557 47.6738C75.9068 47.7146 75.7562 47.7336 75.6056 47.7336Z" fill="#0E1424"/>
<path d="M75.6037 47.7336C75.6011 47.7336 75.5985 47.7336 75.595 47.7336C74.8994 47.7302 74.209 47.3194 73.7859 46.7396C73.7841 46.7361 73.7815 46.7335 73.7798 46.7309C73.7737 46.7223 73.7676 46.7145 73.7623 46.7067C73.7615 46.7058 73.7615 46.7049 73.7606 46.7049C73.7476 46.685 73.7345 46.6659 73.7214 46.646C73.7179 46.6417 73.7145 46.6365 73.711 46.6313C73.3027 45.9943 73.1608 45.2247 73.1616 44.4569C73.1625 44.3624 73.1642 44.2688 73.1686 44.1744C73.5813 44.5089 73.9783 44.8062 74.3535 44.9206C74.7253 45.0349 75.1188 45.0921 75.5123 45.0921C76.2428 45.0921 76.9723 44.8937 77.5635 44.4933C77.5975 44.7299 77.6175 44.9674 77.6175 45.2039C77.6175 45.5073 77.5844 45.808 77.5026 46.0992C77.3041 46.8063 76.7921 47.4607 76.0808 47.6669C76.0721 47.6686 76.0643 47.6712 76.0556 47.6738C75.9076 47.7146 75.7561 47.7336 75.6055 47.7336C75.6055 47.7336 75.6046 47.7336 75.6037 47.7336Z" fill="#2394DA"/>
<path d="M75.1426 43.7439C75.0677 43.7439 74.9919 43.7318 74.9214 43.711C74.036 43.4544 73.175 41.3771 74.3808 41.0443C74.5192 41.0062 74.6446 40.988 74.7586 40.988C75.7999 40.988 75.8695 42.4682 75.6423 43.2785C75.6057 43.4068 75.5639 43.5411 75.4664 43.6312C75.3794 43.7118 75.2627 43.7439 75.1426 43.7439Z" fill="#4FC6E2"/>
<path d="M79.4595 24.8788C78.42 26.3468 77.1428 27.6329 75.8438 28.8653C75.2396 29.4286 74.4987 30.0369 73.6882 29.8853C73.5271 29.8549 73.3591 29.7865 73.2676 29.6565C73.1301 29.4667 73.1684 29.2085 73.2145 28.9797C73.6351 27.0618 74.5135 25.2817 75.6148 23.6533C76.0658 22.9912 80.6053 17.1553 81.3627 20.1227C81.7292 21.5682 80.2387 23.7669 79.4595 24.8788ZM73.6272 32.5025C72.0061 34.5261 70.2788 36.4968 68.2685 38.1477C67.5346 38.7483 66.7319 39.3272 65.8073 39.5551C65.3563 39.6695 64.7982 39.6539 64.5309 39.2744C64.3011 38.9468 64.416 38.4831 64.5762 38.1096C65.1656 36.7325 66.2661 35.6371 67.3744 34.618C67.9473 34.085 68.5436 33.552 69.2245 33.1499C70.21 32.5554 71.3418 32.259 72.4118 31.8482C72.7252 31.726 73.6577 31.0942 73.9476 31.1705C74.5744 31.3386 73.8101 32.2668 73.6272 32.5025ZM40.6436 70.3474C40.056 71.5659 39.5049 72.7826 38.8249 73.9552C37.4493 76.3055 35.7821 78.4894 33.8789 80.4289C33.4584 80.8553 32.9473 81.3042 32.351 81.2583C32.2212 81.2435 32.0758 81.2054 31.9914 81.0919C31.9069 80.9931 31.9 80.8484 31.9 80.7184C31.9069 79.6238 32.2891 78.5735 32.748 77.576C34.2463 74.2966 36.57 71.3908 39.4518 69.1991C39.8488 68.9019 40.5218 68.4841 40.9266 68.9859C41.294 69.427 40.843 69.9297 40.6436 70.3474ZM98.11 28.2031C97.6051 24.9854 95.8551 22.109 93.9972 19.4381C92.1323 16.7593 90.1072 14.1507 88.9067 11.1227C88.5932 10.3462 88.3416 9.53246 88.0047 8.7707C87.7148 8.09299 87.3552 7.46208 86.8581 6.92998L86.8502 6.98285C86.6134 6.65526 86.3314 6.37447 85.9639 6.16129C81.3775 3.48253 68.2224 16.0599 60.365 24.3007C56.7876 28.0515 54.3116 30.9044 54.2428 31.011C54.1505 31.1402 49.84 35.3251 44.6494 40.3698C36.7842 48.0247 26.9156 57.679 26.7093 58.2501C26.5108 58.8212 18.9817 68.004 12.9587 75.3011C8.89984 80.2088 5.53662 84.2568 5.53662 84.2568C5.53662 84.2568 10.2676 91.0434 21.6876 88.7919C22.6435 88.609 23.6447 88.3577 24.6991 88.031C25.4791 87.7866 26.3428 87.8247 27.0462 88.2364C27.4972 88.5024 27.9099 88.837 28.2538 89.2321C28.7884 89.8423 29.1627 90.5572 29.4918 91.3103C29.8052 92.0556 30.0656 92.8399 30.3781 93.5852C30.6384 94.2014 30.944 94.8176 31.4264 95.2968C31.9 95.7683 32.5799 96.0811 33.2451 95.9815C33.8258 95.8983 34.3377 95.4866 34.5597 94.9467C34.9193 94.0333 34.43 93.0141 33.8563 92.2082C33.0387 91.0434 32.0375 90.0165 31.1582 88.8985L31.1425 88.8751C30.1108 87.5509 30.4399 85.6339 31.8233 84.6754C41.5917 77.9495 46.4455 64.0626 55.0142 53.1907V53.1829C56.0772 51.8362 57.1855 50.5501 58.3695 49.3177C58.5532 49.2337 58.7369 49.1652 58.8971 49.1271C60.5182 48.7778 61.3514 50.2996 61.718 51.623C61.9469 52.4523 62.1228 53.2973 62.2377 54.1492V54.157C62.276 54.4612 62.3143 54.7576 62.337 55.0626C62.4136 56.0506 62.4284 57.0784 62.8106 57.9988C63.1928 58.92 64.0878 59.7268 65.0812 59.6506C65.9144 59.5821 66.6021 58.9122 66.8851 58.1435C67.1759 57.3679 67.1141 56.5082 66.9461 55.7013C66.6788 54.4005 66.1285 53.1673 65.3337 52.0944C64.5536 51.0371 63.5445 50.1393 62.949 48.9607L62.9333 48.9304C62.1611 47.3618 62.6277 45.4604 63.9267 44.2878C69.9958 38.8705 76.0728 31.7867 80.5443 25.1526C81.3314 23.9879 82.0662 22.8318 82.7461 21.6982C85.3066 17.4448 89.5257 17.1554 92.2089 21.0517V21.0587C92.3308 21.2346 92.4536 21.4157 92.5685 21.6142L92.6216 21.6904C94.066 24.1707 94.7538 27.0462 94.7921 29.9078C94.8156 31.2468 94.7085 32.662 95.3353 33.8493C95.3884 33.955 95.4572 34.0616 95.5721 34.0997C95.6792 34.1378 95.809 34.0919 95.916 34.039C96.9251 33.5676 97.6434 32.5857 97.9794 31.5215C98.3085 30.4477 98.2859 29.2986 98.11 28.2031Z" fill="#1EACEA"/>
<path d="M29.4918 91.3103C29.1627 90.5572 28.7883 89.8422 28.2537 89.2321C27.9098 88.8369 27.4972 88.5024 27.0462 88.2364C26.6283 87.992 26.1538 87.8793 25.6732 87.8793C25.3459 87.8793 25.0159 87.9322 24.699 88.031C23.6447 88.3577 22.6434 88.609 21.6875 88.7919C22.2908 88.2901 22.8724 87.7563 23.4531 87.2397C24.4004 86.3965 25.5095 85.5463 26.7545 85.5463C26.8364 85.5463 26.9182 85.5507 27 85.5576C28.1693 85.6564 29.1557 86.5698 29.5684 87.6653C29.9811 88.7537 29.8888 89.9783 29.5605 91.0971L29.4918 91.3103Z" fill="#2394DA"/>
<path d="M62.2377 54.1497C62.1228 53.2978 61.9469 52.4528 61.718 51.6234C61.3871 50.4301 60.6784 49.0764 59.3551 49.0764C59.2097 49.0764 59.0573 49.0929 58.8971 49.1275C58.7369 49.1657 58.5532 49.2341 58.3695 49.3182C57.1855 50.5505 56.0772 51.8366 55.0142 53.1834C55.1526 52.8402 55.2823 52.5065 55.3964 52.1859C55.924 50.6953 56.5586 49.2185 57.5137 47.9411C57.7662 47.6135 58.0413 47.2946 58.4 47.0892C58.6777 46.9324 58.9886 46.8622 59.3037 46.8622C59.8644 46.8622 60.4416 47.0858 60.8769 47.4463C61.5578 48.0174 61.94 48.8615 62.1768 49.7143C62.4058 50.5271 62.5128 51.3721 62.505 52.2171C62.498 52.8636 62.4058 53.5188 62.2377 54.1497Z" fill="#2394DA"/>
<path d="M80.5444 25.1528C80.8883 23.9118 81.2322 22.6725 81.5692 21.4315C81.9052 20.1992 82.2569 18.9521 82.9064 17.848C83.5568 16.7526 84.565 15.8019 85.8039 15.4968C86.0912 15.4275 86.3794 15.3946 86.6649 15.3946C88.4941 15.3946 90.2406 16.7396 91.1922 18.3576C91.6815 19.1869 92.0253 20.1082 92.209 21.0519C90.9449 19.2156 89.3386 18.3091 87.7262 18.3091C85.917 18.3091 84.1001 19.4495 82.7462 21.6984C82.0663 22.832 81.3315 23.9881 80.5444 25.1528Z" fill="#2394DA"/>
<path d="M69.0435 27.8872C71.0233 24.8453 72.9587 21.774 75.1178 18.8456C75.742 17.9955 76.3845 17.1514 77.0497 16.3229C77.0514 16.322 77.0532 16.3211 77.0549 16.3203C77.6156 15.6209 78.192 14.9328 78.7875 14.2612C78.7875 14.2603 78.7884 14.2586 78.7884 14.2577C79.9158 12.9881 81.1086 11.7757 82.3805 10.6577C82.3788 10.6569 82.3762 10.6551 82.3745 10.6534C83.3783 9.77029 84.4317 8.94698 85.5435 8.19995C85.7194 8.08642 85.8874 7.97985 86.0633 7.87412L86.2626 7.70597C86.4359 7.52138 86.5212 7.28654 86.5221 7.05082C86.523 6.82983 86.449 6.60795 86.3001 6.42769L86.2008 6.32891C86.1791 6.30724 86.1564 6.28731 86.1329 6.26825C86.4194 6.46497 86.6518 6.70763 86.8503 6.98322L86.8582 6.93034C87.3553 7.46245 87.7148 8.09336 88.0048 8.77107C86.7136 10.0268 84.8784 11.0165 83.7552 11.8762C77.9909 16.3038 74.7896 23.6719 69.0435 27.8872ZM85.964 6.16165L85.9109 6.13912C85.8186 6.09232 85.7272 6.04638 85.6358 6.00132C85.749 6.04638 85.8596 6.10012 85.964 6.16165Z" fill="#2394DA"/>
<path d="M26.6851 79.6206C27.3467 78.7843 27.9771 77.9333 28.59 77.097C31.5101 73.0949 33.5282 68.4463 36.0956 64.2154C37.3955 62.0774 38.8024 59.9932 40.4305 58.0831C42.0733 56.1575 43.946 54.5291 45.9032 52.9319C48.5447 50.7714 51.16 48.5597 53.6753 46.2441C53.6761 46.2441 53.6761 46.2441 53.677 46.2441C53.9086 46.0291 54.1393 45.8134 54.3709 45.5976C54.1759 46.7589 53.5917 47.8967 52.9814 48.9306C50.7038 52.788 47.8525 56.31 44.5581 59.3536C42.9675 60.8295 41.2628 62.1918 39.7731 63.7743C36.0808 67.701 33.8338 72.7985 30.111 76.694C29.0723 77.7825 27.9213 78.7618 26.6851 79.6206Z" fill="#2394DA"/>
<path d="M32.7451 94.5933C32.3812 94.5933 32.0173 94.4503 31.723 94.231C31.239 93.8696 30.9238 93.315 30.7732 92.7309C30.6243 92.1572 30.424 91.0357 31.1536 90.7498C31.2686 90.7047 31.38 90.6848 31.4871 90.6848C32.1801 90.6848 32.6964 91.5349 32.9454 92.0757C33.2396 92.7135 33.4947 93.3999 33.4381 94.1001C33.4303 94.1929 33.4164 94.2891 33.365 94.3671C33.2919 94.4789 33.1578 94.5343 33.0272 94.5629C32.9341 94.5829 32.8392 94.5933 32.7451 94.5933Z" fill="#4FC6E2"/>
<path d="M65.2476 58.5667C65.0578 58.5667 64.8654 58.4904 64.7157 58.3708C64.5032 58.2027 64.3622 57.9609 64.2447 57.7173C63.8006 56.7909 63.6474 55.7293 63.7989 54.7136C63.8633 54.2829 63.8938 53.8496 64.3552 53.691C64.4597 53.6555 64.5694 53.6381 64.6791 53.6381C64.9716 53.6381 65.2685 53.7551 65.4836 53.944C65.8797 54.2916 66.0581 54.8219 66.1678 55.3367C66.3568 56.2276 66.3777 57.1965 65.9659 58.0085C65.8562 58.2243 65.7038 58.4375 65.4774 58.525C65.4034 58.5536 65.326 58.5667 65.2476 58.5667Z" fill="#4FC6E2"/>
<path d="M96.2427 31.9473C96.2131 31.9473 96.1844 31.9438 96.1539 31.9377C96.0155 31.9083 95.9014 31.8103 95.8126 31.7011C95.4095 31.2072 95.42 30.5104 95.4496 29.8751C95.474 29.3569 95.2406 26.4858 96.2062 26.4858C96.2819 26.4858 96.3646 26.504 96.456 26.5421C96.6371 26.6166 96.7599 26.7865 96.8617 26.9537C97.6775 28.3031 97.6854 30.0979 96.88 31.4533C96.7364 31.6942 96.5092 31.9473 96.2427 31.9473Z" fill="#4FC6E2"/>
<path d="M92.7678 42.3055C92.8636 42.6089 92.9986 42.92 93.2598 43.102C93.4408 43.2276 93.6681 43.2788 93.8901 43.2814C94.4273 43.2883 94.9453 43.0257 95.324 42.6461C95.7018 42.2648 95.9526 41.776 96.1311 41.2708C96.4532 40.3591 96.5533 39.3703 96.421 38.4126C96.3487 37.8926 96.1998 37.3649 95.8603 36.9636C94.6971 35.5926 93.5958 37.1421 93.09 38.1994C92.4831 39.4665 92.3412 40.9623 92.7678 42.3055Z" fill="#1EACEA"/>
<path d="M94.383 41.4717C94.1802 41.4717 93.9695 41.3867 93.8206 41.2455C93.5742 41.015 93.4636 40.6735 93.4184 40.3399C93.3095 39.5616 93.6116 37.7746 94.6607 37.7746C94.7522 37.7746 94.8497 37.7885 94.9533 37.8171C96.1661 38.1611 95.4016 40.2471 95.0412 40.9595C94.9663 41.1086 94.8819 41.2594 94.7469 41.3581C94.6407 41.4361 94.5136 41.4717 94.383 41.4717Z" fill="#4FC6E2"/>
<path d="M86.2627 7.70563L86.0633 7.87377C85.8874 7.9795 85.7194 8.08607 85.5435 8.1996C81.3933 10.985 78.0527 14.8501 75.1178 18.8453C72.0828 22.9609 69.4919 27.3591 66.5953 31.5596C63.8119 35.599 60.6559 39.3654 57.2082 42.8579C56.7799 43.2921 56.3524 43.7176 55.9171 44.1362C55.756 44.2878 55.595 44.4404 55.4426 44.5929C54.8541 45.1475 54.2655 45.6961 53.677 46.2438H53.6752C51.16 48.5595 48.5447 50.7711 45.9032 52.9316C43.946 54.5288 42.0733 56.1572 40.4305 58.0829C38.8024 59.9929 37.3955 62.0772 36.0956 64.2151C33.5282 68.446 31.5101 73.0946 28.59 77.0967C26.0756 80.5277 23.2548 84.2187 19.2647 86.0291C18.3706 86.4329 17.4765 86.7137 16.5893 86.874C16.4056 86.9044 16.2306 86.9347 16.046 86.965C15.8632 86.9876 15.6873 87.011 15.5045 87.0257C13.6849 87.2016 11.881 86.9269 10.1075 86.3489C9.18291 86.0525 8.25745 85.672 7.34764 85.2301C7.17961 85.1477 7.00374 85.0637 6.83571 84.9718L6.79043 84.9493C6.36992 84.7283 5.94942 84.5004 5.53674 84.2568C5.35304 83.8686 5.17718 83.4812 5.00132 83.0851L4.96299 83.0011C4.90205 82.8564 4.84112 82.7125 4.78018 82.5678C4.70356 82.4005 4.63477 82.2324 4.57296 82.0651H4.56601C4.46675 81.8372 4.37447 81.6015 4.28305 81.3727C4.08455 80.8865 3.89301 80.3917 3.71018 79.8968C3.52647 79.4254 3.35845 78.9383 3.18955 78.4591L3.14427 78.3143C2.99104 77.8654 2.83869 77.4087 2.69329 76.9529L2.65497 76.8151C2.50958 76.3514 2.3642 75.8791 2.23447 75.4077L2.20399 75.2863C2.10387 74.9354 2.00548 74.5861 1.9132 74.236C1.83658 73.9552 1.76781 73.6657 1.69903 73.3754C1.64592 73.1787 1.59978 72.9802 1.55451 72.7826C1.46223 72.4031 1.37865 72.0139 1.30204 71.6344L1.27156 71.5044C1.17927 71.0702 1.09569 70.6447 1.01124 70.2105C0.988607 70.097 0.965105 69.9904 0.950304 69.876C0.881525 69.4955 0.812743 69.1081 0.751799 68.7199C0.644713 68.0656 0.552427 67.4113 0.468847 66.7492C0.132786 64.1319 -0.020453 61.4541 0.00218321 58.7372C0.0100188 58.3116 0.0178561 57.8922 0.0256917 57.4667C0.048328 56.9112 0.0709752 56.3557 0.102318 55.8002C0.155426 54.8261 0.238989 53.852 0.346075 52.8935C2.21879 35.5305 11.7277 20.3515 25.4331 10.764C27.7185 9.15117 30.1188 7.70564 32.6253 6.44209C33.0389 6.22977 33.4585 6.02436 33.879 5.8181C34.2847 5.62831 34.6974 5.43853 35.1023 5.24787L35.1945 5.20972C35.615 5.01994 36.0277 4.83796 36.4482 4.66203C36.8757 4.48004 37.3119 4.30411 37.7402 4.13685C38.1825 3.96265 38.6265 3.78761 39.0775 3.62728C39.3753 3.51289 39.6739 3.40627 39.9716 3.30748C41.4622 2.78316 42.9753 2.32645 44.5119 1.92261C44.902 1.81601 45.2842 1.72503 45.6734 1.63403C46.2166 1.4971 46.759 1.3749 47.3093 1.26138C47.6384 1.19291 47.9744 1.12358 48.3035 1.06291C51.2845 0.492668 54.3343 0.142548 57.4529 0.0368118C62.9335 -0.153847 68.253 0.401672 73.3287 1.60369C74.9872 1.99887 76.6153 2.46252 78.2129 2.98856C79.2829 3.33781 80.3381 3.71912 81.3776 4.12904C82.425 4.54069 83.4488 4.98182 84.4579 5.44633C84.9472 5.66646 85.4295 5.89439 85.9109 6.13877L85.9641 6.16131C86.0555 6.20724 86.1321 6.26009 86.2009 6.32856L86.3001 6.42735C86.5987 6.8 86.5909 7.35551 86.2627 7.70563Z" fill="#52C7F1"/>
<path d="M84.4578 5.44678C83.4487 4.98226 82.4249 4.54113 81.3775 4.12948C82.4249 4.54113 83.4487 4.97446 84.4578 5.44678ZM78.2128 2.989C76.6152 2.46296 74.9872 1.99931 73.3286 1.60413C74.9802 1.99151 76.6083 2.45603 78.2128 2.989Z" fill="#388599"/>
<path d="M12.4203 83.934C11.0256 83.934 9.63952 83.7 8.31965 83.1844C7.15737 82.7285 5.77395 82.1262 4.57336 82.0656H4.56641C4.46716 81.8376 4.37487 81.6019 4.28345 81.3731C4.08495 80.8869 3.89341 80.3921 3.71058 79.8973C3.52688 79.4258 3.35885 78.9388 3.18995 78.4595L3.14467 78.3148C2.99144 77.8659 2.83909 77.4092 2.6937 76.9533L2.65537 76.8155C2.50998 76.3519 2.3646 75.8796 2.23487 75.4081L2.20439 75.2868C2.10427 74.9358 2.00588 74.5865 1.9136 74.2364C1.83698 73.9556 1.76821 73.6662 1.69943 73.3759C1.64632 73.1791 1.60019 72.9807 1.55491 72.7831C1.46263 72.4035 1.37906 72.0144 1.30244 71.6348L1.27196 71.5048C1.17967 71.0706 1.09609 70.6451 1.01164 70.2109C0.989008 70.0974 0.965506 69.9908 0.950705 69.8764C0.881926 69.496 0.813144 69.1086 0.7522 68.7203C0.645114 68.066 0.552827 67.4117 0.469248 66.7496C0.141023 64.1324 -0.0200522 61.4545 0.00258404 58.7376C0.0104196 58.3121 0.018257 57.8926 0.0260926 57.4671C0.0487288 56.9116 0.071376 56.3561 0.102718 55.8006C0.163662 54.8265 0.239389 53.8524 0.346476 52.8939C2.23486 35.576 11.7282 20.3823 25.4335 10.7644C27.7189 9.16722 30.1192 7.72169 32.6257 6.44254C33.0393 6.23022 33.4589 6.02481 33.8794 5.81856C34.2851 5.62876 34.6978 5.43899 35.1027 5.24833L35.1949 5.21018C35.6154 5.02039 36.0281 4.83841 36.4486 4.66248C36.8761 4.48049 37.3123 4.30456 37.7406 4.1373C38.1829 3.96311 38.6269 3.78806 39.0779 3.62773C39.3757 3.51334 39.6743 3.40672 39.972 3.30793C41.4626 2.78362 42.9757 2.3269 44.5123 1.92306C44.9024 1.81646 45.2846 1.72548 45.6738 1.63448C46.217 1.49756 46.7594 1.37536 47.3097 1.26183C47.6388 1.19337 47.9748 1.12403 48.3039 1.06337C51.2849 0.493126 54.3347 0.142998 57.4533 0.0372696C58.1585 0.0121384 58.862 7.62939e-06 59.5619 7.62939e-06C64.2999 7.62939e-06 68.9072 0.556389 73.3291 1.60414C74.9876 1.99933 76.6157 2.46297 78.2133 2.98901C79.2833 3.33826 80.3385 3.71957 81.378 4.12949C82.4254 4.54115 83.4492 4.98228 84.4583 5.44678C84.9476 5.66692 85.4299 5.89484 85.9114 6.13923C84.2371 6.6254 81.8673 8.55799 81.0951 9.15163C80.9688 9.25043 80.8426 9.35009 80.7181 9.45061C79.0195 8.32227 77.1895 7.39671 75.4508 6.70167C72.623 5.57072 69.7195 4.61481 66.7402 3.97957C63.9978 3.39632 61.2013 3.11381 58.4049 3.11381C45.9567 3.11381 33.492 8.71745 25.5798 18.3327C23.9613 20.3 22.5073 22.4466 21.6759 24.8506C20.8453 27.2555 20.6764 29.9516 21.594 32.3245C23.0271 36.0345 26.9318 38.39 30.8906 38.9065C31.5905 38.9975 32.2914 39.04 32.9923 39.04C36.2554 39.04 39.5106 38.1205 42.5761 36.9401C46.2997 35.5059 49.8745 33.6764 53.6948 32.5212C57.2139 31.457 60.8635 30.9864 64.5219 30.5444C64.2537 30.8633 63.9777 31.1675 63.6904 31.4535C59.6551 37.0077 54.8693 42.029 49.5193 46.3431C43.8393 46.48 38.1986 46.7764 32.886 48.702C26.1065 51.1745 20.3508 56.318 17.1635 62.77C14.0057 69.1536 13.4023 76.7549 15.5197 83.5648C14.4967 83.8049 13.4563 83.934 12.4203 83.934ZM16.7255 34.5196C11.837 34.5196 7.68498 43.1443 6.7212 47.1759C6.2084 49.3173 6.01338 51.535 6.17793 53.7311C6.26761 54.9244 6.46435 56.136 7.03113 57.1898C7.59877 58.2445 8.59129 59.1267 9.77708 59.3131C9.93727 59.3382 10.0975 59.3503 10.2568 59.3503C11.2084 59.3503 12.1495 58.9265 12.8765 58.3008C13.7262 57.5703 14.3182 56.5892 14.8032 55.5822C15.9211 53.264 16.5758 50.6727 18.2126 48.683C19.3818 47.2643 21.0038 46.2157 21.9345 44.6315C23.4067 42.1243 22.7041 38.7228 20.726 36.5883C19.3713 35.1271 18.0219 34.5196 16.7255 34.5196Z" fill="#7BD4E9"/>
<path d="M78.7886 14.2581C78.7886 14.2572 78.7894 14.2563 78.7894 14.2555C79.9143 12.985 81.1044 11.7717 82.3747 10.6537C82.3764 10.6555 82.379 10.6572 82.3807 10.6581C81.1088 11.776 79.916 12.9884 78.7886 14.2581Z" fill="#48C4E8"/>
<path d="M32.9918 39.0396C32.291 39.0396 31.5901 38.9971 30.8901 38.9061C26.9314 38.3896 23.0266 36.0341 21.5936 32.324C20.676 29.9512 20.8449 27.2551 21.6754 24.8502C22.5069 22.4462 23.9608 20.2995 25.5793 18.3323C33.4915 8.71702 45.9563 3.11338 58.4044 3.11338C61.2009 3.11338 63.9973 3.3959 66.7398 3.97915C69.7191 4.61438 72.6226 5.57029 75.4504 6.70124C77.189 7.39628 79.0191 8.32184 80.7176 9.45019C79.8853 10.1184 79.0922 10.8273 78.3321 11.5674C77.0784 9.77344 74.0957 8.63037 72.3945 8.06792C69.8113 7.21256 67.0863 6.87977 64.3752 6.63538C62.6653 6.48112 60.9449 6.35978 59.2289 6.35978C58.0135 6.35978 56.8007 6.42046 55.5949 6.57298C52.6853 6.9413 49.7983 7.8738 47.4546 9.62873C45.8483 10.8325 44.4466 12.6299 44.5903 14.6248C44.7626 17.0358 47.1708 18.7751 49.5685 19.1504C50.0874 19.2318 50.6071 19.2665 51.1278 19.2665C53.0144 19.2665 54.9089 18.8141 56.7851 18.5013C62.1559 17.606 67.6478 17.8513 73.0788 17.4397C73.1484 17.4345 73.219 17.4284 73.2912 17.4215C71.92 19.2596 70.635 21.1636 69.3769 23.0598C67.8272 25.3945 66.382 28.328 64.5214 30.544C60.8631 30.986 57.2134 31.4565 53.6943 32.5208C49.8741 33.676 46.2993 35.5054 42.5756 36.9397C39.5102 38.1201 36.2549 39.0396 32.9918 39.0396ZM39.7278 14.1387C36.4299 14.1387 33.0388 17.5038 31.3246 19.9347C30.7256 20.784 30.2006 21.7113 29.996 22.7296C29.7914 23.7479 29.9394 24.8727 30.5784 25.6943C31.2357 26.541 32.3205 26.9362 33.4106 26.9362C33.8023 26.9362 34.195 26.8851 34.5694 26.7854C35.9815 26.4093 37.1699 25.4655 38.2277 24.4611C39.1732 23.5633 40.0517 22.5961 40.8553 21.57C42.4694 19.5074 44.3334 14.5052 40.1196 14.1551C39.989 14.1439 39.8584 14.1387 39.7278 14.1387Z" fill="#9CDEE9"/>
<path d="M10.2565 59.3499C10.0971 59.3499 9.93693 59.3377 9.77674 59.3126C8.59095 59.1263 7.59843 58.244 7.03079 57.1893C6.46401 56.1355 6.26727 54.924 6.17759 53.7306C6.01304 51.5346 6.20806 49.3169 6.72086 47.1754C7.68464 43.1439 11.8366 34.5192 16.7252 34.5192C18.0215 34.5192 19.371 35.1267 20.7257 36.5878C22.7038 38.7223 23.4064 42.1238 21.9341 44.631C21.0034 46.2152 19.3815 47.2638 18.2122 48.6825C16.5754 50.6723 15.9207 53.2635 14.8028 55.5817C14.3179 56.5888 13.7259 57.5698 12.8762 58.3004C12.1492 58.9261 11.208 59.3499 10.2565 59.3499Z" fill="#9CDEE9"/>
<path d="M51.1277 19.2666C50.6071 19.2666 50.0873 19.2319 49.5685 19.1505C47.1708 18.7752 44.7626 17.0359 44.5902 14.6249C44.4466 12.63 45.8483 10.8326 47.4546 9.62882C49.7983 7.87389 52.6853 6.9414 55.5949 6.57308C56.8007 6.42055 58.0135 6.35987 59.2289 6.35987C60.9449 6.35987 62.6652 6.48121 64.3752 6.63547C67.0863 6.87986 69.8113 7.21265 72.3945 8.06802C74.0957 8.63046 77.0784 9.77354 78.3321 11.5675C76.4873 13.364 74.8348 15.3503 73.2912 17.4216C73.2189 17.4285 73.1484 17.4345 73.0788 17.4397C67.6478 17.8514 62.1559 17.6061 56.785 18.5014C54.9088 18.8142 53.0144 19.2666 51.1277 19.2666Z" fill="#B6E7ED"/>
<path d="M77.0498 16.3228C77.4242 15.8565 77.8055 15.3946 78.1938 14.9396C78.3906 14.71 78.5882 14.4829 78.7885 14.2576C78.7885 14.2584 78.7876 14.2602 78.7876 14.261C78.1921 14.9327 77.6157 15.6208 77.055 16.3202C77.0533 16.321 77.0515 16.3219 77.0498 16.3228Z" fill="#48C4E8"/>
<path d="M78.1934 14.9397C78.3901 14.7092 78.5886 14.4812 78.7889 14.2551C78.7889 14.2559 78.788 14.2568 78.788 14.2577C78.5878 14.483 78.3901 14.71 78.1934 14.9397Z" fill="#75D2E4"/>
<path d="M33.4107 26.9365C32.3206 26.9365 31.2358 26.5413 30.5785 25.6946C29.9395 24.8731 29.7915 23.7482 29.9961 22.7299C30.2007 21.7116 30.7257 20.7843 31.3246 19.935C33.0389 17.5041 36.43 14.139 39.7279 14.139C39.8585 14.139 39.9891 14.1442 40.1197 14.1555C44.3335 14.5056 42.4695 19.5078 40.8554 21.5704C40.0518 22.5964 39.1733 23.5636 38.2278 24.4614C37.17 25.4659 35.9816 26.4096 34.5695 26.7857C34.1951 26.8854 33.8024 26.9365 33.4107 26.9365Z" fill="#B6E7ED"/>
<path d="M16.6716 83.2432C15.9342 81.6841 15.5947 79.9404 15.4954 78.2184C15.4058 76.6594 14.8999 72.7795 17.3986 72.7795C17.4126 72.7795 17.4274 72.7795 17.4422 72.7795C18.3049 72.7951 19.045 73.419 19.5325 74.1279C20.4301 75.4296 20.7157 77.0433 20.9464 78.605C21.0613 79.3815 21.1675 80.1614 21.2459 80.9431C19.8486 81.9293 18.2927 82.7223 16.6716 83.2432Z" fill="#3BC0F3"/>
<path d="M19.0755 70.1353C18.6088 70.1353 18.1283 70.0512 17.7678 69.7617C17.2263 69.3258 17.1044 68.5493 17.1505 67.8569C17.2472 66.3957 18.2998 63.7309 19.9714 63.3833C20.1185 63.353 20.2526 63.3391 20.3771 63.3391C22.3638 63.3391 21.6517 67.0171 21.3026 68.1221C21.0771 68.8353 20.788 69.6239 20.1124 69.9498C19.8408 70.0815 19.5343 70.1205 19.2331 70.1318C19.1808 70.1344 19.1286 70.1353 19.0755 70.1353Z" fill="#3BC0F3"/>
<path d="M14.4059 87.0793C12.959 87.0793 11.5233 86.8116 10.1077 86.3496C11.5337 86.8081 12.979 87.0759 14.4364 87.0759C14.7916 87.0759 15.1477 87.0594 15.5047 87.0265C15.1373 87.062 14.7716 87.0793 14.4059 87.0793ZM16.5894 86.8748C16.2612 85.8097 15.8938 84.7594 15.5734 83.7549L15.5195 83.5652C15.9069 83.4742 16.2908 83.3667 16.6722 83.2436C17.0021 83.9421 17.4122 84.6034 17.9154 85.2092C18.2149 85.5697 18.6102 85.9094 19.035 86.1234L19.2649 86.0281C19.971 85.7083 20.6387 85.327 21.2769 84.9006C21.3265 84.651 21.3526 84.3937 21.3631 84.1484C21.4092 83.079 21.3544 82.0096 21.2464 80.9436C21.68 80.6385 22.0979 80.3144 22.4984 79.9738C26.3814 76.6867 28.8879 72.1144 31.1811 67.5871C33.4822 63.0598 35.7066 58.3947 39.1926 54.6977C41.7757 51.9591 44.9631 49.8662 47.9598 47.5679C48.4865 47.1649 49.0062 46.7542 49.519 46.3434C50.9016 46.3052 52.2928 46.2827 53.6754 46.2446C51.1602 48.5602 48.5448 50.7719 45.9033 52.9324C43.9462 54.5296 42.0735 56.158 40.4306 58.0836C38.8025 59.9937 37.3956 62.0779 36.0958 64.2159C33.5283 68.4468 31.5102 73.0954 28.5901 77.0975C26.0758 80.5285 23.2549 84.2195 19.2649 86.0298C18.3707 86.4337 17.4766 86.7145 16.5894 86.8748ZM6.77056 84.9396C6.35701 84.7221 5.94347 84.4968 5.53689 84.2576C5.35319 83.8693 5.17733 83.482 5.00146 83.0859C5.37322 83.878 5.99309 84.528 6.77056 84.9396Z" fill="#94DCE8"/>
<path d="M4.96208 83.0016C4.90127 82.8569 4.84046 82.713 4.77964 82.5683C4.70319 82.4011 4.63455 82.2329 4.56592 82.0657H4.57285C4.63454 82.2329 4.70319 82.4011 4.77964 82.5683C4.84046 82.713 4.90127 82.8569 4.96208 83.0016Z" fill="#82D5D9"/>
<path d="M14.436 87.0754C12.9786 87.0754 11.5334 86.8077 10.1073 86.3492C9.18271 86.0528 8.25724 85.6724 7.34744 85.2304C7.17941 85.148 7.00353 85.064 6.8355 84.9721L6.79023 84.9496C6.78326 84.9461 6.77717 84.9427 6.77021 84.9392C5.99274 84.5275 5.37287 83.8776 5.00112 83.0855L4.96279 83.0014C4.90185 82.8567 4.84092 82.7128 4.77997 82.5681C4.70336 82.4008 4.63457 82.2327 4.57275 82.0654C5.77334 82.1261 7.15677 82.7284 8.31905 83.1843C9.63891 83.6999 11.025 83.9339 12.4197 83.9339C13.4557 83.9339 14.4961 83.8048 15.5191 83.5647L15.5731 83.7545C15.8935 84.7589 16.2609 85.8093 16.5891 86.8744C16.4054 86.9047 16.2304 86.935 16.0458 86.9654C15.863 86.9879 15.6871 87.0113 15.5043 87.026C15.1474 87.059 14.7913 87.0754 14.436 87.0754ZM49.5187 46.3429C54.8687 42.0289 59.6545 37.0076 63.6898 31.4534C63.9771 31.1674 64.2531 30.8632 64.5213 30.5443C65.5216 30.4229 66.5228 30.3042 67.5223 30.1759C70.0515 26.3966 72.4161 22.5132 75.1141 18.8422C75.7375 17.9937 76.3792 17.1531 77.0435 16.3263C77.0452 16.3255 77.0478 16.3237 77.0495 16.3229C76.3844 17.1514 75.7419 17.9955 75.1176 18.8456C72.0826 22.9613 69.4917 27.3594 66.5951 31.56C63.8117 35.5993 60.6557 39.3657 57.208 42.8582C56.7797 43.2924 56.3522 43.7179 55.9169 44.1365C55.7558 44.2882 55.5948 44.4407 55.4424 44.5932C54.8539 45.1479 54.2653 45.6964 53.6768 46.2441H53.675C52.2925 46.2823 50.9012 46.3048 49.5187 46.3429Z" fill="#AFE4EA"/>
<path d="M64.521 30.5439C66.3815 28.328 67.8268 25.3944 69.3765 23.0597C70.6345 21.1635 71.9196 19.2596 73.2908 17.4214C74.4766 17.3088 75.9166 16.9864 77.0432 16.326C76.3789 17.1528 75.7372 17.9934 75.1139 18.8418C72.4158 22.5129 70.0512 26.3963 67.522 30.1756C66.5226 30.3039 65.5213 30.4226 64.521 30.5439Z" fill="#C6ECEF"/>
<path d="M85.5431 8.19964C85.719 8.08611 85.887 7.97954 86.0628 7.87381L86.2622 7.70567C86.5904 7.35555 86.5983 6.80004 86.2997 6.42739C86.4485 6.60765 86.5225 6.82952 86.5217 7.05051C86.5208 7.28623 86.4355 7.52107 86.2622 7.70567L86.0628 7.87381C85.887 7.97954 85.719 8.08611 85.5431 8.19964Z" fill="#8FDAE5"/>
<path d="M82.3741 10.6531C81.8421 10.2302 81.2867 9.82892 80.7173 9.4502C80.8418 9.34967 80.968 9.25002 81.0943 9.15122C81.8665 8.55758 84.2363 6.62499 85.9105 6.13881L85.9637 6.16135C86.0551 6.20728 86.1317 6.26013 86.2005 6.3286L86.2997 6.42739C86.5983 6.80004 86.5905 7.35555 86.2623 7.70567L86.0629 7.87381C85.887 7.97954 85.719 8.08611 85.5431 8.19964C84.4314 8.94668 83.3779 9.76998 82.3741 10.6531Z" fill="#AFE4EA"/>
<path d="M78.7891 14.2546C78.891 13.8967 78.938 13.5085 78.9032 13.0751C78.8596 12.5283 78.6524 12.0265 78.332 11.5672C79.0921 10.8271 79.8852 10.1182 80.7176 9.45004C81.2869 9.82876 81.8424 10.23 82.3744 10.6529C81.1041 11.7709 79.914 12.9842 78.7891 14.2546Z" fill="#C6ECEF"/>
<path d="M77.0439 16.3259C77.4201 15.8588 77.8031 15.3952 78.194 14.9393C77.8057 15.3943 77.4244 15.8562 77.05 16.3225C77.0483 16.3233 77.0457 16.3251 77.0439 16.3259Z" fill="#C6ECEF"/>
<path d="M73.291 17.4216C74.8346 15.3504 76.4871 13.3641 78.3319 11.5675C78.6523 12.0269 78.8595 12.5286 78.9031 13.0755C78.9379 13.5088 78.8909 13.897 78.789 14.255C78.5888 14.4812 78.3903 14.7091 78.1935 14.9396C77.8026 15.3954 77.4195 15.8591 77.0434 16.3262C75.9168 16.9866 74.4768 17.309 73.291 17.4216Z" fill="#D7F2F3"/>
<path d="M19.0352 86.1233C18.6104 85.9092 18.2151 85.5695 17.9156 85.209C17.4124 84.6032 17.0023 83.942 16.6724 83.2435C18.2935 82.7226 19.8493 81.9297 21.2466 80.9434C21.3546 82.0094 21.4094 83.0788 21.3633 84.1482C21.3528 84.3935 21.3267 84.6509 21.2771 84.9005C20.6389 85.3269 19.9712 85.7082 19.2651 86.028L19.0352 86.1233Z" fill="#82D6E7"/>
</svg>
